<svg id="Camada_1" data-name="Camada 1" xmlns="http://www.w3.org/2000/svg" xmlns:xlink="http://www.w3.org/1999/xlink" viewBox="0 0 669.28 704.08"><defs><style>.cls-1{fill:url(#New_Gradient_Swatch_4);}.cls-2{fill:url(#New_Gradient_Swatch_4-2);}.cls-3{fill:url(#New_Gradient_Swatch_4-3);}.cls-4{fill:url(#New_Gradient_Swatch_4-5);}.cls-5{fill:url(#New_Gradient_Swatch_4-7);}.cls-6{fill:url(#New_Gradient_Swatch_4-8);}.cls-7{fill:url(#New_Gradient_Swatch_4-10);}.cls-8{fill:url(#New_Gradient_Swatch_4-11);}.cls-9{fill:url(#New_Gradient_Swatch_4-12);}.cls-10{fill:url(#New_Gradient_Swatch_4-14);}.cls-11{fill:url(#New_Gradient_Swatch_4-16);}.cls-12{fill:url(#New_Gradient_Swatch_4-17);}.cls-13{fill:url(#New_Gradient_Swatch_4-19);}.cls-14{fill:url(#New_Gradient_Swatch_4-21);}.cls-15{fill:url(#New_Gradient_Swatch_4-23);}.cls-16{fill:url(#New_Gradient_Swatch_4-26);}.cls-17{fill:url(#New_Gradient_Swatch_4-29);}.cls-18{fill:url(#New_Gradient_Swatch_4-33);}.cls-19{fill:url(#New_Gradient_Swatch_4-35);}.cls-20{fill:url(#New_Gradient_Swatch_4-38);}.cls-21{fill:url(#New_Gradient_Swatch_4-41);}.cls-22{fill:url(#New_Gradient_Swatch_4-42);}.cls-23{fill:url(#New_Gradient_Swatch_4-43);}.cls-24{fill:#221e20;}.cls-25{fill:#999;stroke:#000;stroke-miterlimit:10;stroke-width:0.75px;}.cls-26{font-size:85px;font-family:Formata-Medium, Formata;font-weight:500;}.cls-27{letter-spacing:-0.02em;}.cls-28{letter-spacing:0em;}.cls-29{font-size:48px;font-family:Formata-Regular, Formata;}.cls-30{letter-spacing:0.02em;}</style><linearGradient id="New_Gradient_Swatch_4" x1="1081.39" y1="870.9" x2="818.18" y2="870.9" gradientUnits="userSpaceOnUse"><stop offset="0" stop-color="#c0d134"/><stop offset="0.16" stop-color="#96c23f"/><stop offset="1" stop-color="#23592c"/></linearGradient><linearGradient id="New_Gradient_Swatch_4-2" x1="1081.39" y1="990.09" x2="818.18" y2="990.09" xlink:href="#New_Gradient_Swatch_4"/><linearGradient id="New_Gradient_Swatch_4-3" x1="1081.39" y1="972.06" x2="818.19" y2="972.06" xlink:href="#New_Gradient_Swatch_4"/><linearGradient id="New_Gradient_Swatch_4-5" x1="1081.34" y1="968.41" x2="818.27" y2="968.41" xlink:href="#New_Gradient_Swatch_4"/><linearGradient id="New_Gradient_Swatch_4-7" x1="1081.39" y1="969.35" x2="818.18" y2="969.35" xlink:href="#New_Gradient_Swatch_4"/><linearGradient id="New_Gradient_Swatch_4-8" x1="1081.39" y1="973.78" x2="818.18" y2="973.78" xlink:href="#New_Gradient_Swatch_4"/><linearGradient id="New_Gradient_Swatch_4-10" x1="1081.38" y1="990.3" x2="818.19" y2="990.3" xlink:href="#New_Gradient_Swatch_4"/><linearGradient id="New_Gradient_Swatch_4-11" x1="1081.39" y1="980.67" x2="818.19" y2="980.67" xlink:href="#New_Gradient_Swatch_4"/><linearGradient id="New_Gradient_Swatch_4-12" x1="1081.39" y1="997.76" x2="818.19" y2="997.76" xlink:href="#New_Gradient_Swatch_4"/><linearGradient id="New_Gradient_Swatch_4-14" x1="1081.38" y1="951.01" x2="818.19" y2="951.01" xlink:href="#New_Gradient_Swatch_4"/><linearGradient id="New_Gradient_Swatch_4-16" x1="1081.39" y1="912.82" x2="818.19" y2="912.82" xlink:href="#New_Gradient_Swatch_4"/><linearGradient id="New_Gradient_Swatch_4-17" x1="1081.39" y1="925.89" x2="818.19" y2="925.89" xlink:href="#New_Gradient_Swatch_4"/><linearGradient id="New_Gradient_Swatch_4-19" x1="1081.37" y1="968.27" x2="818.23" y2="968.27" xlink:href="#New_Gradient_Swatch_4"/><linearGradient id="New_Gradient_Swatch_4-21" x1="1081.39" y1="975.89" x2="818.19" y2="975.89" xlink:href="#New_Gradient_Swatch_4"/><linearGradient id="New_Gradient_Swatch_4-23" x1="1081.39" y1="969.96" x2="818.19" y2="969.96" xlink:href="#New_Gradient_Swatch_4"/><linearGradient id="New_Gradient_Swatch_4-26" x1="1081.39" y1="977.65" x2="818.19" y2="977.65" xlink:href="#New_Gradient_Swatch_4"/><linearGradient id="New_Gradient_Swatch_4-29" x1="1081.39" y1="971.38" x2="818.18" y2="971.38" xlink:href="#New_Gradient_Swatch_4"/><linearGradient id="New_Gradient_Swatch_4-33" x1="1081.38" y1="966.08" x2="818.21" y2="966.08" xlink:href="#New_Gradient_Swatch_4"/><linearGradient id="New_Gradient_Swatch_4-35" x1="1081.39" y1="985.46" x2="818.19" y2="985.46" xlink:href="#New_Gradient_Swatch_4"/><linearGradient id="New_Gradient_Swatch_4-38" x1="1081.39" y1="986.16" x2="818.19" y2="986.16" xlink:href="#New_Gradient_Swatch_4"/><linearGradient id="New_Gradient_Swatch_4-41" x1="1081.39" y1="857.58" x2="818.19" y2="857.58" xlink:href="#New_Gradient_Swatch_4"/><linearGradient id="New_Gradient_Swatch_4-42" x1="1081.39" y1="1015.44" x2="818.19" y2="1015.44" xlink:href="#New_Gradient_Swatch_4"/><linearGradient id="New_Gradient_Swatch_4-43" x1="1081.39" y1="850.89" x2="818.19" y2="850.89" xlink:href="#New_Gradient_Swatch_4"/></defs><path class="cls-1" d="M980.86,876.41q-1.59-5.43-3.48-10.65l-.57-.36C978.32,869,979.66,872.66,980.86,876.41Z" transform="translate(-675.21 -715.54)"/><path class="cls-2" d="M976.52,996.32c.21-.13.42-.27.64-.39,1.44-3.93,2.75-8,3.93-12.06A130,130,0,0,1,976.52,996.32Z" transform="translate(-675.21 -715.54)"/><path class="cls-3" d="M976.45,970.84l.11-.44q-8,1.79-16.06,3.32A144.67,144.67,0,0,0,975.65,971Z" transform="translate(-675.21 -715.54)"/><path class="cls-3" d="M976.45,970.84l.11-.44q-8,1.79-16.06,3.32A144.67,144.67,0,0,0,975.65,971Z" transform="translate(-675.21 -715.54)"/><path class="cls-4" d="M985.28,968.38l-.19,0v0Z" transform="translate(-675.21 -715.54)"/><path class="cls-4" d="M985.28,968.38l-.19,0v0Z" transform="translate(-675.21 -715.54)"/><path class="cls-5" d="M996,973.28v1h-2.83c-3.09,1.07-6.23,2.05-9.41,2.9l-.74.2,0,.09q9.87-2.22,19.58-4.82c3.46-4.1,6.55-8,9.06-11.4q-3.47,1-6.94,2a74.1,74.1,0,0,1-5.34,8.73C998.21,972.44,997.09,972.86,996,973.28Z" transform="translate(-675.21 -715.54)"/><path class="cls-6" d="M996,973.28c-.94.35-1.88.67-2.83,1H996Z" transform="translate(-675.21 -715.54)"/><path class="cls-6" d="M996,973.28c-.94.35-1.88.67-2.83,1H996Z" transform="translate(-675.21 -715.54)"/><path class="cls-7" d="M977.16,995.93c-1.86,5.05-3.92,10-6.17,14.68A83.77,83.77,0,0,0,1012.06,970q-4.74,1.37-9.52,2.65C995.25,981.24,986.25,990.43,977.16,995.93Z" transform="translate(-675.21 -715.54)"/><path class="cls-8" d="M983,977.46l-.16,0c-.53,2.14-1.1,4.27-1.71,6.37.6-1.9,1.18-3.81,1.7-5.75Z" transform="translate(-675.21 -715.54)"/><path class="cls-9" d="M976.52,996.32a130,130,0,0,0,4.57-12.45c.61-2.1,1.18-4.23,1.71-6.37-4.55,1-9.11,2-13.72,2.88.91-.15,1.82-.31,2.72-.48l2.25-.43-.73,2.18a125.43,125.43,0,0,1-9.1,20.52,79.5,79.5,0,0,1-24.07,5v-22c-2.67.36-5.36.7-8,1v21a76.32,76.32,0,0,1-24.19-5.25,124.13,124.13,0,0,1-6.24-13q-4.3.25-8.64.44c.76,2.11,1.55,4.2,2.42,6.24a76.64,76.64,0,0,1-8.28-6q-7.62.24-15.3.26A87.26,87.26,0,0,0,936.12,1018a84.23,84.23,0,0,0,34.87-7.41c2.25-4.72,4.31-9.63,6.17-14.68C976.94,996.05,976.73,996.19,976.52,996.32Z" transform="translate(-675.21 -715.54)"/><path class="cls-9" d="M976.52,996.32a130,130,0,0,0,4.57-12.45c.61-2.1,1.18-4.23,1.71-6.37-4.55,1-9.11,2-13.72,2.88.91-.15,1.82-.31,2.72-.48l2.25-.43-.73,2.18a125.43,125.43,0,0,1-9.1,20.52,79.5,79.5,0,0,1-24.07,5v-22c-2.67.36-5.36.7-8,1v21a76.32,76.32,0,0,1-24.19-5.25,124.13,124.13,0,0,1-6.24-13q-4.3.25-8.64.44c.76,2.11,1.55,4.2,2.42,6.24a76.64,76.64,0,0,1-8.28-6q-7.62.24-15.3.26A87.26,87.26,0,0,0,936.12,1018a84.23,84.23,0,0,0,34.87-7.41c2.25-4.72,4.31-9.63,6.17-14.68C976.94,996.05,976.73,996.19,976.52,996.32Z" transform="translate(-675.21 -715.54)"/><path class="cls-10" d="M883.54,935.83a189.74,189.74,0,0,0,3.2,30.36Z" transform="translate(-675.21 -715.54)"/><path class="cls-10" d="M883.54,935.83a189.74,189.74,0,0,0,3.2,30.36Z" transform="translate(-675.21 -715.54)"/><path class="cls-11" d="M871,971.19a137,137,0,0,0,17.53,6l.74.19.2.75c.36,1.31.73,2.59,1.12,3.88,2.77-.14,5.55-.29,8.31-.47l-.7-2.06,2.26.43q3.1.58,6.22,1.06a511.41,511.41,0,0,0,53.83-7.24,188.53,188.53,0,0,1-19,1.35l-1.37,0V934.53h40.57l0,1.38a163.28,163.28,0,0,1-4,34.12l-.08.37c1.89-.42,3.79-.87,5.67-1.31V882.7h.35q-.81-3.18-1.72-6.29c-1.2-3.75-2.54-7.44-4.05-11l.57.36q-2.93-8.06-6.53-15.58a87.51,87.51,0,0,0-105,132.46q6.9,0,13.75-.21A76.53,76.53,0,0,1,871,971.19Zm69.16-117.36a76.34,76.34,0,0,1,24.15,5.24,121.46,121.46,0,0,1,9,20.3l.74,2.18-2.25-.43a190.22,190.22,0,0,0-30.36-3.2l-1.31,0Zm0,32.09,1.37,0a164.39,164.39,0,0,1,34.14,4l.81.19.19.81a164.15,164.15,0,0,1,4,34.13l0,1.37H940.15Zm-8,89.18-1.37,0a164,164,0,0,1-34.12-4l-.81-.19-.19-.81a163.54,163.54,0,0,1-4-34.13l0-1.38H932.1Zm-33.16-95.73a121.29,121.29,0,0,1,9-20.32,76.54,76.54,0,0,1,24.13-5.22v24l-1.3,0a189.85,189.85,0,0,0-30.34,3.2l-2.26.43Zm-3.13,10.82.8-.19a164,164,0,0,1,34.12-4l1.37,0v40.57H891.54l0-1.37a163.84,163.84,0,0,1,4-34.12Zm-.37-24.81a136.31,136.31,0,0,0-6,17.52l-.2.75-.74.2a135.45,135.45,0,0,0-17.53,6A77.15,77.15,0,0,1,895.44,865.38Zm-30.77,37a121.74,121.74,0,0,1,20.32-9l2.17-.74-.43,2.26a190.07,190.07,0,0,0-3.19,30.35l0,1.3H859.44A76.61,76.61,0,0,1,864.67,902.35Zm0,56.35a76.41,76.41,0,0,1-5.24-24.17H883.5l0,1.3,3.2,30.36.43,2.26-2.18-.73A123.52,123.52,0,0,1,864.68,958.7Z" transform="translate(-675.21 -715.54)"/><path class="cls-12" d="M982.23,969.09c.86-.21,1.73-.39,2.6-.6a196.5,196.5,0,0,0,3.67-38,193.62,193.62,0,0,0-5.92-47.84h-.35Z" transform="translate(-675.21 -715.54)"/><path class="cls-12" d="M982.23,969.09c.86-.21,1.73-.39,2.6-.6a196.5,196.5,0,0,0,3.67-38,193.62,193.62,0,0,0-5.92-47.84h-.35Z" transform="translate(-675.21 -715.54)"/><path class="cls-13" d="M999.32,972a74.1,74.1,0,0,0,5.34-8.73c-2.89.83-5.79,1.62-8.69,2.39v7.63C997.09,972.86,998.21,972.44,999.32,972Z" transform="translate(-675.21 -715.54)"/><path class="cls-13" d="M999.32,972a74.1,74.1,0,0,0,5.34-8.73c-2.89.83-5.79,1.62-8.69,2.39v7.63C997.09,972.86,998.21,972.44,999.32,972Z" transform="translate(-675.21 -715.54)"/><path class="cls-14" d="M983,977.37l.74-.2c3.18-.85,6.32-1.83,9.41-2.9h-9.57c-.25,1.09-.5,2.16-.77,3.23l.16,0Z" transform="translate(-675.21 -715.54)"/><path class="cls-14" d="M983,977.37l.74-.2c3.18-.85,6.32-1.83,9.41-2.9h-9.57c-.25,1.09-.5,2.16-.77,3.23l.16,0Z" transform="translate(-675.21 -715.54)"/><path class="cls-15" d="M985.09,968.44v0l-.26.07c-.39,1.94-.82,3.87-1.26,5.78h9.57c1-.32,1.89-.64,2.83-1v-7.63q-5.33,1.43-10.69,2.73Z" transform="translate(-675.21 -715.54)"/><path class="cls-15" d="M985.09,968.44v0l-.26.07c-.39,1.94-.82,3.87-1.26,5.78h9.57c1-.32,1.89-.64,2.83-1v-7.63q-5.33,1.43-10.69,2.73Z" transform="translate(-675.21 -715.54)"/><path class="cls-15" d="M985.09,968.44v0l-.26.07c-.39,1.94-.82,3.87-1.26,5.78h9.57c1-.32,1.89-.64,2.83-1v-7.63q-5.33,1.43-10.69,2.73Z" transform="translate(-675.21 -715.54)"/><path class="cls-16" d="M982.23,974.27v-5.18c-1.88.44-3.78.89-5.67,1.31l-.11.44-.8.19a144.67,144.67,0,0,1-15.15,2.69A511.41,511.41,0,0,1,906.67,981a194.17,194.17,0,0,0,24.13,2.14l1.3,0v3.08c2.69-.32,5.38-.66,8-1v-2.06l1.31,0a191.58,191.58,0,0,0,27.62-2.72c4.61-.89,9.17-1.86,13.72-2.88.27-1.07.52-2.14.77-3.23Z" transform="translate(-675.21 -715.54)"/><path class="cls-16" d="M982.23,974.27v-5.18c-1.88.44-3.78.89-5.67,1.31l-.11.44-.8.19a144.67,144.67,0,0,1-15.15,2.69A511.41,511.41,0,0,1,906.67,981a194.17,194.17,0,0,0,24.13,2.14l1.3,0v3.08c2.69-.32,5.38-.66,8-1v-2.06l1.31,0a191.58,191.58,0,0,0,27.62-2.72c4.61-.89,9.17-1.86,13.72-2.88.27-1.07.52-2.14.77-3.23Z" transform="translate(-675.21 -715.54)"/><path class="cls-16" d="M982.23,974.27v-5.18c-1.88.44-3.78.89-5.67,1.31l-.11.44-.8.19a144.67,144.67,0,0,1-15.15,2.69A511.41,511.41,0,0,1,906.67,981a194.17,194.17,0,0,0,24.13,2.14l1.3,0v3.08c2.69-.32,5.38-.66,8-1v-2.06l1.31,0a191.58,191.58,0,0,0,27.62-2.72c4.61-.89,9.17-1.86,13.72-2.88.27-1.07.52-2.14.77-3.23Z" transform="translate(-675.21 -715.54)"/><path class="cls-17" d="M983.57,974.27c.44-1.91.87-3.84,1.26-5.78-.87.21-1.74.39-2.6.6v5.18Z" transform="translate(-675.21 -715.54)"/><path class="cls-17" d="M983.57,974.27c.44-1.91.87-3.84,1.26-5.78-.87.21-1.74.39-2.6.6v5.18Z" transform="translate(-675.21 -715.54)"/><path class="cls-17" d="M983.57,974.27c.44-1.91.87-3.84,1.26-5.78-.87.21-1.74.39-2.6.6v5.18Z" transform="translate(-675.21 -715.54)"/><path class="cls-17" d="M983.57,974.27c.44-1.91.87-3.84,1.26-5.78-.87.21-1.74.39-2.6.6v5.18Z" transform="translate(-675.21 -715.54)"/><path class="cls-18" d="M1017.18,959.52l-5.58,1.72c-2.51,3.35-5.6,7.3-9.06,11.4q4.77-1.27,9.52-2.65c.21-.45.43-.9.65-1.35C1013.87,966.29,1015.48,962.69,1017.18,959.52Z" transform="translate(-675.21 -715.54)"/><path class="cls-18" d="M1017.18,959.52l-5.58,1.72c-2.51,3.35-5.6,7.3-9.06,11.4q4.77-1.27,9.52-2.65c.21-.45.43-.9.65-1.35C1013.87,966.29,1015.48,962.69,1017.18,959.52Z" transform="translate(-675.21 -715.54)"/><path class="cls-19" d="M898.89,981.53c-2.76.18-5.54.33-8.31.47q1.13,3.75,2.45,7.4,4.34-.18,8.64-.44c-1-2.42-1.91-4.86-2.74-7.31Z" transform="translate(-675.21 -715.54)"/><path class="cls-19" d="M898.89,981.53c-2.76.18-5.54.33-8.31.47q1.13,3.75,2.45,7.4,4.34-.18,8.64-.44c-1-2.42-1.91-4.86-2.74-7.31Z" transform="translate(-675.21 -715.54)"/><path class="cls-19" d="M898.89,981.53c-2.76.18-5.54.33-8.31.47q1.13,3.75,2.45,7.4,4.34-.18,8.64-.44c-1-2.42-1.91-4.86-2.74-7.31Z" transform="translate(-675.21 -715.54)"/><path class="cls-20" d="M879.59,982.43q-6.86.2-13.75.21a87.43,87.43,0,0,0,6,7.25q7.68,0,15.3-.26A78.18,78.18,0,0,1,879.59,982.43Z" transform="translate(-675.21 -715.54)"/><path class="cls-20" d="M879.59,982.43q-6.86.2-13.75.21a87.43,87.43,0,0,0,6,7.25q7.68,0,15.3-.26A78.18,78.18,0,0,1,879.59,982.43Z" transform="translate(-675.21 -715.54)"/><path class="cls-20" d="M879.59,982.43q-6.86.2-13.75.21a87.43,87.43,0,0,0,6,7.25q7.68,0,15.3-.26A78.18,78.18,0,0,1,879.59,982.43Z" transform="translate(-675.21 -715.54)"/><path class="cls-21" d="M870.4,776.72a188.3,188.3,0,0,0-61.87,202.87l3.21.33a188.24,188.24,0,0,1,63.53-197.14c80.08-64.29,196.6-52.42,262.21,26-.79-1-1.55-2.07-2.37-3.09C1070,724.56,951.49,711.6,870.4,776.72Z" transform="translate(-675.21 -715.54)"/><path class="cls-22" d="M841.46,1041.43c.82,1,1.68,2,2.51,3a188,188,0,0,1-30.2-57.59l-3-.36A187.79,187.79,0,0,0,841.46,1041.43Z" transform="translate(-675.21 -715.54)"/><path class="cls-23" d="M931.7,723.85C821.13,755.93,757.5,871.56,789.58,982.12c.4,1.38.88,2.74,1.31,4.11-29.31-109.29,34-222.43,143.21-254.11s223.24,30,257,138c-.37-1.39-.68-2.78-1.09-4.17C1157.89,755.4,1042.26,691.76,931.7,723.85Z" transform="translate(-675.21 -715.54)"/><path class="cls-24" d="M744.17,1042.77H755.5c.61,0,1.17,0,1.78,0,7.52.41,11.18,3.4,11.84,9a10.38,10.38,0,0,1-2.24,8.13,10.89,10.89,0,0,1-8.33,3.86H749.3v15.55h-5.13Zm10.77,17.48c.41,0,.82,0,1.17,0,4.17-.15,6-1.27,7.32-4a6.76,6.76,0,0,0,.56-3.81c-.36-3.82-2.49-5.8-7.68-6.16h-7v14Z" transform="translate(-675.21 -715.54)"/><path class="cls-24" d="M783.76,1053.39c6,1.07,10,6,10,13.16s-4,12.1-10,13.17c-8.79,1.57-15.4-4.07-15.4-13.17S775,1051.82,783.76,1053.39Zm-10.42,14.48c.66,6.92,4.52,10,9.76,8.75,3.2-.82,5.18-3.46,5.64-8.75a11.22,11.22,0,0,0,0-2.59c-.46-5.33-2.44-7.93-5.64-8.74-5.24-1.32-9.1,1.78-9.76,8.74a10.87,10.87,0,0,0-.05,1.27A11.56,11.56,0,0,0,773.34,1067.87Z" transform="translate(-675.21 -715.54)"/><path class="cls-24" d="M800,1053.85l6.4,20.38,6.3-20.38h5.85l6.35,20.38,6.51-20.38h4.21l-8.08,25.51H822.2l-6.71-21.4-6.61,21.4h-5.54l-8.08-25.51Z" transform="translate(-675.21 -715.54)"/><path class="cls-24" d="M841.63,1067.21a8.87,8.87,0,0,0,0,1.63c.41,5.64,3.1,8.24,7.06,8.28,3.2.1,5.29-1.47,6.2-4.88a1.61,1.61,0,0,0,.16-.71h4.31a5.78,5.78,0,0,1-.25,1.58c-1.07,4.17-4.63,6.81-10.42,6.91-7,.15-10.92-3.66-11.69-11.39-.86-9,3.2-14.33,9.46-15.19,8.43-1.17,13.11,2.9,13.51,12.2,0,.51,0,1-.05,1.57Zm13.62-2.59a4.41,4.41,0,0,0,0-.81c-.16-5.24-2.8-7.78-6.86-7.62-3.46.1-6,2.33-6.66,7.11a5.62,5.62,0,0,0-.1,1.32Z" transform="translate(-675.21 -715.54)"/><path class="cls-24" d="M864.86,1053.85h4.57v3.6a6.7,6.7,0,0,1,.46-.71,7.24,7.24,0,0,1,6.2-3.35,9.19,9.19,0,0,1,2.33.2v4l-.45,0-.61,0c-5.69-.31-7.93,1.93-7.93,7.21v14.64h-4.57Z" transform="translate(-675.21 -715.54)"/><path class="cls-24" d="M902.42,1057.45l-.56-.71a16.18,16.18,0,0,1-2.49-4.36c-1.73-5.34,1.63-10.17,7.47-10.07a7.14,7.14,0,0,1,1.83.21c4.78,1.06,7.06,6.8,4.12,11.38a12.43,12.43,0,0,1-4.37,3.91c-.51.26-1.07.51-1.58.76l9.76,11.49a22.3,22.3,0,0,0,1.37-7.27h2.8a27.43,27.43,0,0,1-.67,4.47,25.69,25.69,0,0,1-1.82,4.83l6.3,7.27H921l-4.17-5.13c-.3.4-.56.76-.86,1.11a13.06,13.06,0,0,1-7.22,4.38c-5.95,1.32-11.43-1.28-13.72-5.8a10.68,10.68,0,0,1-1.12-5c.11-4,2.34-7.57,7-10.22a17.66,17.66,0,0,1,1.83-.86Zm-1.63,4.42c-.56.51-1.12,1.08-1.62,1.63a8.24,8.24,0,0,0,3.71,13.42c4,1.32,8.18.16,11.33-3.25.35-.41.66-.82,1-1.22l-10.82-12.76A14.23,14.23,0,0,0,900.79,1061.87Zm6-5.89c2.9-1.68,4.07-3.3,4.37-5.43.46-3.46-2.13-6-5.34-5.39-3.81.61-5.28,4.27-2.69,8.59.31.4.56.81.86,1.22a13,13,0,0,0,1.38,1.72A7,7,0,0,0,906.79,1056Z" transform="translate(-675.21 -715.54)"/><path class="cls-24" d="M942,1042.77h22.56v3.66H947.1v12.2h16.46v3.7H947.1v13.37h18v3.66H942Z" transform="translate(-675.21 -715.54)"/><path class="cls-24" d="M969.87,1053.85h4.57v4.67l.46-.91a8.19,8.19,0,0,1,6.86-4.47c6-.56,9.5,2.48,9.76,7.87l.05,1.12v17.23H987v-16.21l0-1.12c-.15-2.13-.55-3.1-1.47-4.07a5.69,5.69,0,0,0-5.74-1.42c-3.36.81-5.29,3.66-5.29,9.76v13.06h-4.57Z" transform="translate(-675.21 -715.54)"/><path class="cls-24" d="M1001.23,1067.21a8.87,8.87,0,0,0,0,1.63c.41,5.64,3.1,8.24,7.06,8.28,3.2.1,5.29-1.47,6.2-4.88a1.61,1.61,0,0,0,.16-.71H1019a5.78,5.78,0,0,1-.25,1.58c-1.07,4.17-4.63,6.81-10.42,6.91-7,.15-10.92-3.66-11.69-11.39-.86-9,3.2-14.33,9.46-15.19,8.43-1.17,13.11,2.9,13.51,12.2,0,.51,0,1-.05,1.57Zm13.62-2.59a4.41,4.41,0,0,0,0-.81c-.16-5.24-2.8-7.78-6.86-7.62-3.46.1-5.95,2.33-6.66,7.11a5.62,5.62,0,0,0-.1,1.32Z" transform="translate(-675.21 -715.54)"/><path class="cls-24" d="M1024.46,1053.85H1029v3.6a6.7,6.7,0,0,1,.46-.71,7.24,7.24,0,0,1,6.2-3.35,9.19,9.19,0,0,1,2.33.2v4l-.45,0-.61,0c-5.69-.31-7.93,1.93-7.93,7.21v14.64h-4.57Z" transform="translate(-675.21 -715.54)"/><path class="cls-24" d="M1057,1053.85h4.63v25.36c0,7.06-4.78,11.53-13.17,11.08-6-.36-9.19-3-9.6-7a6.94,6.94,0,0,1,0-1h4.62a1.51,1.51,0,0,0,.06.51c.25,2.38,1.93,4,5.43,4.21,4.83.36,7.68-2.18,8-6.76a5.2,5.2,0,0,0,0-.86v-5.59l-.25.46-.51.71c-2.59,4-7,5.44-11.79,3.5-3.66-1.52-5.9-4.67-6.6-9.91a17.44,17.44,0,0,1,.1-4.67c1-6,4.67-9.76,8.74-10.37,5.08-.81,8.69.92,10.31,4Zm-5.13,22c1.83-.56,3.35-2.13,4.52-5.08a14.42,14.42,0,0,0,.72-3.15c.81-8.28-3.41-12.09-8.59-10.93-3,.71-5.19,3.41-5.7,8a13.47,13.47,0,0,0-.15,1.48C1042.51,1074,1047,1077.43,1051.91,1075.85Z" transform="translate(-675.21 -715.54)"/><path class="cls-24" d="M1069,1053.85l7.52,20.38,7.48-20.38h4.16l-13,35.37h-4.47l3.46-9.45-10-25.92Z" transform="translate(-675.21 -715.54)"/><path class="cls-24" d="M1107.57,1069.2c-.45,4.31,3.2,7.82,9.45,7.26a7.39,7.39,0,0,0,2.7-.66c3-1.27,4.17-3.25,4.12-5.85s-1.17-4.06-4.37-5.38l-2.65-.87-3.2-1.16c-.51-.16-1-.36-1.52-.56-7.83-3-10.17-6.66-8.29-12.86,1.22-4.12,5.34-7,12-7,8-.1,12.6,4.06,12.81,9.5h-5.19c0-3.25-2.8-5.79-7.67-5.79-4,0-6.15,1.47-7.12,4.32-1.17,3.66.61,6.35,6.86,8.49l3.51,1.16,1.78.62,1.37.5c5.69,2.09,7.88,6.1,6.55,11.49-1.11,4.47-4.67,7.11-11.27,7.52a26.3,26.3,0,0,1-4,0c-6.81-.61-10.06-3.26-10.93-8.44a11.65,11.65,0,0,1-.1-2.28Z" transform="translate(-675.21 -715.54)"/><path class="cls-24" d="M1147.47,1053.39c6,1.07,10,6,10,13.16s-4,12.1-10,13.17c-8.79,1.57-15.4-4.07-15.4-13.17S1138.68,1051.82,1147.47,1053.39Zm-10.42,14.48c.66,6.92,4.53,10,9.76,8.75,3.2-.82,5.18-3.46,5.64-8.75a11.22,11.22,0,0,0,0-2.59c-.46-5.33-2.44-7.93-5.64-8.74-5.23-1.32-9.1,1.78-9.76,8.74a10.87,10.87,0,0,0,0,1.27A11.56,11.56,0,0,0,1137.05,1067.87Z" transform="translate(-675.21 -715.54)"/><path class="cls-24" d="M1178.94,1062.13c-.06-.3-.1-.66-.15-1.07a12.73,12.73,0,0,0-.41-1.32c-1.48-3.45-6.35-4.62-9.91-1.62-1.63,1.37-2.69,3.55-3,7.16a15.57,15.57,0,0,0,.1,3.41c.66,5.28,2.8,7.57,6.66,7.82s6-1.52,6.6-5.08c.06-.25.06-.51.11-.71h4.32a5.83,5.83,0,0,1-.2,1.63c-1,4.93-4.89,7.92-11,7.67-7.17-.25-11.29-4.73-11.44-13.06-.1-8,3.91-13,9.81-13.72,7.32-1,11.74,2.13,12.75,7.62.06.41.11.87.16,1.27Z" transform="translate(-675.21 -715.54)"/><path class="cls-24" d="M1187.58,1042.77h4.57v5.44h-4.57Zm0,11.08h4.57v25.51h-4.57Z" transform="translate(-675.21 -715.54)"/><path class="cls-24" d="M1201.81,1067.21a8.87,8.87,0,0,0,0,1.63c.41,5.64,3.1,8.24,7.07,8.28,3.19.1,5.28-1.47,6.19-4.88a1.49,1.49,0,0,0,.16-.71h4.32a5.8,5.8,0,0,1-.26,1.58c-1.06,4.17-4.62,6.81-10.41,6.91-7,.15-10.93-3.66-11.69-11.39-.87-9,3.2-14.33,9.45-15.19,8.43-1.17,13.11,2.9,13.51,12.2,0,.51,0,1,0,1.57Zm13.62-2.59a4.41,4.41,0,0,0,0-.81c-.15-5.24-2.79-7.78-6.86-7.62-3.46.1-5.95,2.33-6.66,7.11a5.62,5.62,0,0,0-.1,1.32Z" transform="translate(-675.21 -715.54)"/><path class="cls-24" d="M1220.82,1053.85h4.63v-5.19l4.57-1.83v7h5.74v3.09H1230v15.66c.3,3.1,1,3.71,4.37,3.66a6.64,6.64,0,0,0,1.63-.2v3.4a16.18,16.18,0,0,1-3,.41c-5.69.15-7.62-1.73-7.62-7.58v-15.35h-4.63Z" transform="translate(-675.21 -715.54)"/><path class="cls-24" d="M1239,1053.85l7.53,20.38,7.47-20.38h4.17l-13,35.37h-4.48l3.46-9.45-10-25.92Z" transform="translate(-675.21 -715.54)"/><path d="M896.17,1037.74c.76.3,1.51.53,2.27.81a116.35,116.35,0,0,1,83.83-217c-.75-.3-1.47-.63-2.23-.92a116.38,116.38,0,0,0-83.87,217.13Z" transform="translate(-675.21 -715.54)"/><path class="cls-24" d="M993.68,890.14h41.61l4.86.25c19.65.76,28.59,8.68,30,25.66,1.66,18.64-9.82,31.92-28.72,32.8l-2.68.13H1022v33.07H993.68Zm35.24,41.23h2.55l1.78-.13c4.47-.13,7.53-2.17,9.57-6.38a13.48,13.48,0,0,0,1.16-7.28c-.64-7.41-4.47-11-13-11.36h-9.32v25.15Z" transform="translate(-675.21 -715.54)"/><path class="cls-24" d="M1076.54,890.14h66.13v18.25h-38.18v17.49h36.39v18.9h-36.39v19h39v18.26h-66.9Z" transform="translate(-675.21 -715.54)"/><path class="cls-24" d="M1175.49,951.28a10.27,10.27,0,0,0-.13,3.45c.51,8.42,6.13,13.15,15.06,12.26a12.49,12.49,0,0,0,4-1c4.34-2.17,6.37-5.36,6.25-9.82-.25-4.86-2.94-8.31-8.43-10.09l-.9-.26-4.85-1.4-7.53-2a27.33,27.33,0,0,1-2.68-.91c-22.85-7.4-29.48-15.83-25.53-32.29,3.19-13.53,15.33-21.84,38.17-21.58,2,0,4.22.12,6.25.26,16.09,1.4,24.4,6.12,29.12,14.68a25.86,25.86,0,0,1,3.06,13.78h-26.68v-1.91a14.11,14.11,0,0,0-1.27-4.47c-2.44-4.46-6.64-6.51-13-5.87a12.48,12.48,0,0,0-3.83,1c-4.6,2.44-6.51,6.52-5.5,11.37,1,4.21,4,6.65,12.39,9.07l8.43,2.42,10.09,2.81c16.08,4.6,23.36,16,19.78,31.4-3.07,13.28-12.89,20.17-34,21.31a89.22,89.22,0,0,1-11.88-.24c-17.23-1.41-26.29-7.15-31-17.24a27.47,27.47,0,0,1-2.42-14.68Z" transform="translate(-675.21 -715.54)"/><path class="cls-24" d="M994.05,836.82h8.58v44.53h-8.58Z" transform="translate(-675.21 -715.54)"/><path class="cls-24" d="M1008.46,836.82h30v6.74H1018.6v11.5h18.87V862H1018.6v12.62H1039v6.74h-30.49Z" transform="translate(-675.21 -715.54)"/><path class="cls-24" d="M1043.89,836.82h30v6.74H1054v11.5h18.86V862H1054v12.62h20.34v6.74h-30.49Z" transform="translate(-675.21 -715.54)"/><path class="cls-24" d="M1079.33,836.82h30v6.74h-19.86v11.5h18.86V862h-18.86v12.62h20.35v6.74h-30.49Z" transform="translate(-675.21 -715.54)"/><path d="M885.05,1016A97,97,0,0,1,851.7,884.41c-.35.56-.73,1.11-1.09,1.68a97,97,0,1,0,165.67,101c.35-.58.67-1.16,1-1.75A97,97,0,0,1,885.05,1016Z" transform="translate(-675.21 -715.54)"/><path class="cls-24" d="M1282.58,1052.63a9.12,9.12,0,1,1-9-8.87A8.94,8.94,0,0,1,1282.58,1052.63Zm-15.95,0a6.9,6.9,0,0,0,6.92,7.09,6.8,6.8,0,0,0,6.76-7,6.85,6.85,0,1,0-13.68-.06Zm5.46,4.6H1270v-8.87a23.79,23.79,0,0,1,3.41-.27,4.75,4.75,0,0,1,3,.7,2.24,2.24,0,0,1,.92,1.9,2.28,2.28,0,0,1-1.84,2.1v.11c.86.28,1.3,1,1.57,2.17a8,8,0,0,0,.65,2.16h-2.17a7.07,7.07,0,0,1-.7-2.16c-.16-.92-.7-1.36-1.84-1.36h-1Zm.05-5h1c1.14,0,2.06-.37,2.06-1.29s-.6-1.36-1.89-1.36a5.22,5.22,0,0,0-1.14.11Z" transform="translate(-675.21 -715.54)"/><line class="cls-25" x1="15.56" y1="416.39" x2="650.07" y2="415.96"/><text class="cls-26" transform="translate(74.37 517.17)">Universidade<tspan class="cls-27"><tspan x="-74.38" y="102">F</tspan><tspan class="cls-28" x="-31.79" y="102">ederal da Bahia</tspan></tspan></text><text x="-675.21" y="-715.54"/><text class="cls-29" transform="translate(28.3 692.08)"><tspan class="cls-30">I</tspan><tspan x="14.02" y="0">EEE Student Branch Chapter</tspan></text></svg>