<svg id="Camada_1" data-name="Camada 1" xmlns="http://www.w3.org/2000/svg" xmlns:xlink="http://www.w3.org/1999/xlink" viewBox="0 0 2072.42 374.78"><defs><style>.cls-1{fill:url(#New_Gradient_Swatch_4);}.cls-2{fill:url(#New_Gradient_Swatch_4-2);}.cls-3{fill:url(#New_Gradient_Swatch_4-3);}.cls-4{fill:url(#New_Gradient_Swatch_4-5);}.cls-5{fill:url(#New_Gradient_Swatch_4-7);}.cls-6{fill:url(#New_Gradient_Swatch_4-8);}.cls-7{fill:url(#New_Gradient_Swatch_4-10);}.cls-8{fill:url(#New_Gradient_Swatch_4-11);}.cls-9{fill:url(#New_Gradient_Swatch_4-12);}.cls-10{fill:url(#New_Gradient_Swatch_4-14);}.cls-11{fill:url(#New_Gradient_Swatch_4-16);}.cls-12{fill:url(#New_Gradient_Swatch_4-17);}.cls-13{fill:url(#New_Gradient_Swatch_4-19);}.cls-14{fill:url(#New_Gradient_Swatch_4-21);}.cls-15{fill:url(#New_Gradient_Swatch_4-23);}.cls-16{fill:url(#New_Gradient_Swatch_4-26);}.cls-17{fill:url(#New_Gradient_Swatch_4-29);}.cls-18{fill:url(#New_Gradient_Swatch_4-33);}.cls-19{fill:url(#New_Gradient_Swatch_4-35);}.cls-20{fill:url(#New_Gradient_Swatch_4-38);}.cls-21{fill:url(#New_Gradient_Swatch_4-41);}.cls-22{fill:url(#New_Gradient_Swatch_4-42);}.cls-23{fill:url(#New_Gradient_Swatch_6);}.cls-24{fill:url(#New_Gradient_Swatch_4-43);}.cls-25{fill:url(#New_Gradient_Swatch_4-44);}.cls-26{fill:#221e20;}.cls-27{stroke:#000;stroke-miterlimit:10;stroke-width:5px;}.cls-28{font-size:100px;font-family:Formata-Medium, Formata;font-weight:500;}.cls-29{letter-spacing:-0.02em;}.cls-30{font-family:Formata-Regular, Formata;font-weight:400;}.cls-31{letter-spacing:0.02em;}</style><linearGradient id="New_Gradient_Swatch_4" x1="6518.63" y1="7180.18" x2="6255.42" y2="7180.18" gradientUnits="userSpaceOnUse"><stop offset="0" stop-color="#c0d134"/><stop offset="0.16" stop-color="#96c23f"/><stop offset="1" stop-color="#23592c"/></linearGradient><linearGradient id="New_Gradient_Swatch_4-2" x1="6518.63" y1="7299.37" x2="6255.42" y2="7299.37" xlink:href="#New_Gradient_Swatch_4"/><linearGradient id="New_Gradient_Swatch_4-3" x1="6518.63" y1="7281.34" x2="6255.43" y2="7281.34" xlink:href="#New_Gradient_Swatch_4"/><linearGradient id="New_Gradient_Swatch_4-5" x1="6518.58" y1="7277.69" x2="6255.51" y2="7277.69" xlink:href="#New_Gradient_Swatch_4"/><linearGradient id="New_Gradient_Swatch_4-7" x1="6518.64" y1="7278.63" x2="6255.42" y2="7278.63" xlink:href="#New_Gradient_Swatch_4"/><linearGradient id="New_Gradient_Swatch_4-8" x1="6518.63" y1="7283.06" x2="6255.42" y2="7283.06" xlink:href="#New_Gradient_Swatch_4"/><linearGradient id="New_Gradient_Swatch_4-10" x1="6518.62" y1="7299.58" x2="6255.44" y2="7299.58" xlink:href="#New_Gradient_Swatch_4"/><linearGradient id="New_Gradient_Swatch_4-11" x1="6518.63" y1="7289.95" x2="6255.43" y2="7289.95" xlink:href="#New_Gradient_Swatch_4"/><linearGradient id="New_Gradient_Swatch_4-12" x1="6518.63" y1="7307.04" x2="6255.43" y2="7307.04" xlink:href="#New_Gradient_Swatch_4"/><linearGradient id="New_Gradient_Swatch_4-14" x1="6518.62" y1="7260.29" x2="6255.43" y2="7260.29" xlink:href="#New_Gradient_Swatch_4"/><linearGradient id="New_Gradient_Swatch_4-16" x1="6518.63" y1="7222.1" x2="6255.43" y2="7222.1" xlink:href="#New_Gradient_Swatch_4"/><linearGradient id="New_Gradient_Swatch_4-17" x1="6518.63" y1="7235.17" x2="6255.43" y2="7235.17" xlink:href="#New_Gradient_Swatch_4"/><linearGradient id="New_Gradient_Swatch_4-19" x1="6518.61" y1="7277.55" x2="6255.47" y2="7277.55" xlink:href="#New_Gradient_Swatch_4"/><linearGradient id="New_Gradient_Swatch_4-21" x1="6518.63" y1="7285.17" x2="6255.43" y2="7285.17" xlink:href="#New_Gradient_Swatch_4"/><linearGradient id="New_Gradient_Swatch_4-23" x1="6518.63" y1="7279.24" x2="6255.43" y2="7279.24" xlink:href="#New_Gradient_Swatch_4"/><linearGradient id="New_Gradient_Swatch_4-26" x1="6518.63" y1="7286.93" x2="6255.43" y2="7286.93" xlink:href="#New_Gradient_Swatch_4"/><linearGradient id="New_Gradient_Swatch_4-29" x1="6518.63" y1="7280.66" x2="6255.42" y2="7280.66" xlink:href="#New_Gradient_Swatch_4"/><linearGradient id="New_Gradient_Swatch_4-33" x1="6518.62" y1="7275.36" x2="6255.45" y2="7275.36" xlink:href="#New_Gradient_Swatch_4"/><linearGradient id="New_Gradient_Swatch_4-35" x1="6518.63" y1="7294.74" x2="6255.43" y2="7294.74" xlink:href="#New_Gradient_Swatch_4"/><linearGradient id="New_Gradient_Swatch_4-38" x1="6518.63" y1="7295.44" x2="6255.43" y2="7295.44" xlink:href="#New_Gradient_Swatch_4"/><linearGradient id="New_Gradient_Swatch_4-41" x1="6518.63" y1="7166.86" x2="6255.43" y2="7166.86" xlink:href="#New_Gradient_Swatch_4"/><linearGradient id="New_Gradient_Swatch_4-42" x1="6518.63" y1="7324.72" x2="6255.43" y2="7324.72" xlink:href="#New_Gradient_Swatch_4"/><linearGradient id="New_Gradient_Swatch_6" x1="6546.62" y1="7318.44" x2="6170.6" y2="7318.44" gradientUnits="userSpaceOnUse"><stop offset="0" stop-color="#129fdb"/><stop offset="1" stop-color="#7f8083"/></linearGradient><linearGradient id="New_Gradient_Swatch_4-43" x1="6546.62" y1="7318.44" x2="6170.6" y2="7318.44" xlink:href="#New_Gradient_Swatch_4"/><linearGradient id="New_Gradient_Swatch_4-44" x1="6518.63" y1="7160.17" x2="6255.43" y2="7160.17" xlink:href="#New_Gradient_Swatch_4"/></defs><path class="cls-1" d="M6418.1,7185.69q-1.59-5.43-3.48-10.65c-.19-.11-.38-.25-.57-.36C6415.57,7178.25,6416.9,7181.94,6418.1,7185.69Z" transform="translate(-6156.81 -7024.82)"/><path class="cls-2" d="M6413.76,7305.6c.21-.13.42-.27.64-.39,1.44-3.93,2.75-8,3.93-12.06A130,130,0,0,1,6413.76,7305.6Z" transform="translate(-6156.81 -7024.82)"/><path class="cls-3" d="M6413.69,7280.12l.11-.44q-8,1.78-16.06,3.32a144.67,144.67,0,0,0,15.15-2.69Z" transform="translate(-6156.81 -7024.82)"/><path class="cls-3" d="M6413.69,7280.12l.11-.44q-8,1.78-16.06,3.32a144.67,144.67,0,0,0,15.15-2.69Z" transform="translate(-6156.81 -7024.82)"/><path class="cls-4" d="M6422.52,7277.66l-.19,0v0Z" transform="translate(-6156.81 -7024.82)"/><path class="cls-4" d="M6422.52,7277.66l-.19,0v0Z" transform="translate(-6156.81 -7024.82)"/><path class="cls-5" d="M6433.21,7282.56v1h-2.83c-3.09,1.07-6.23,2.05-9.4,2.9l-.75.2,0,.09q9.87-2.22,19.58-4.82c3.46-4.1,6.55-8.05,9.06-11.4q-3.47,1-6.94,2a74.1,74.1,0,0,1-5.34,8.73C6435.45,7281.72,6434.33,7282.14,6433.21,7282.56Z" transform="translate(-6156.81 -7024.82)"/><path class="cls-6" d="M6433.21,7282.56c-.94.35-1.88.67-2.83,1h2.83Z" transform="translate(-6156.81 -7024.82)"/><path class="cls-6" d="M6433.21,7282.56c-.94.35-1.88.67-2.83,1h2.83Z" transform="translate(-6156.81 -7024.82)"/><path class="cls-7" d="M6414.4,7305.21c-1.86,5.05-3.92,10-6.17,14.68a83.77,83.77,0,0,0,41.07-40.62q-4.74,1.36-9.52,2.65C6432.49,7290.52,6423.49,7299.71,6414.4,7305.21Z" transform="translate(-6156.81 -7024.82)"/><path class="cls-8" d="M6420.2,7286.74l-.16,0c-.53,2.14-1.1,4.27-1.71,6.37.6-1.9,1.18-3.81,1.7-5.75Z" transform="translate(-6156.81 -7024.82)"/><path class="cls-9" d="M6413.76,7305.6a130,130,0,0,0,4.57-12.45c.61-2.1,1.18-4.23,1.71-6.37-4.54,1-9.11,2-13.72,2.88.91-.15,1.82-.31,2.72-.48l2.26-.43-.74,2.18a125.43,125.43,0,0,1-9.1,20.52,79.5,79.5,0,0,1-24.07,5v-22c-2.67.36-5.36.7-8.05,1v21a76.32,76.32,0,0,1-24.19-5.25,124.13,124.13,0,0,1-6.24-13q-4.31.26-8.64.44c.76,2.11,1.55,4.2,2.42,6.24a76.64,76.64,0,0,1-8.28-6q-7.62.24-15.3.26a87.26,87.26,0,0,0,64.25,28.13,84.23,84.23,0,0,0,34.87-7.41c2.25-4.72,4.31-9.63,6.17-14.68C6414.18,7305.33,6414,7305.47,6413.76,7305.6Z" transform="translate(-6156.81 -7024.82)"/><path class="cls-9" d="M6413.76,7305.6a130,130,0,0,0,4.57-12.45c.61-2.1,1.18-4.23,1.71-6.37-4.54,1-9.11,2-13.72,2.88.91-.15,1.82-.31,2.72-.48l2.26-.43-.74,2.18a125.43,125.43,0,0,1-9.1,20.52,79.5,79.5,0,0,1-24.07,5v-22c-2.67.36-5.36.7-8.05,1v21a76.32,76.32,0,0,1-24.19-5.25,124.13,124.13,0,0,1-6.24-13q-4.31.26-8.64.44c.76,2.11,1.55,4.2,2.42,6.24a76.64,76.64,0,0,1-8.28-6q-7.62.24-15.3.26a87.26,87.26,0,0,0,64.25,28.13,84.23,84.23,0,0,0,34.87-7.41c2.25-4.72,4.31-9.63,6.17-14.68C6414.18,7305.33,6414,7305.47,6413.76,7305.6Z" transform="translate(-6156.81 -7024.82)"/><path class="cls-10" d="M6320.78,7245.11a189.74,189.74,0,0,0,3.2,30.36Z" transform="translate(-6156.81 -7024.82)"/><path class="cls-10" d="M6320.78,7245.11a189.74,189.74,0,0,0,3.2,30.36Z" transform="translate(-6156.81 -7024.82)"/><path class="cls-11" d="M6308.23,7280.47a137,137,0,0,0,17.53,6l.74.19.2.75c.36,1.31.73,2.59,1.12,3.88,2.77-.14,5.55-.29,8.31-.47l-.7-2.06,2.26.43q3.11.58,6.22,1.06a511.41,511.41,0,0,0,53.83-7.24,188.53,188.53,0,0,1-19,1.35l-1.37,0v-40.57H6418l0,1.38a163.28,163.28,0,0,1-4,34.12l-.08.37c1.89-.42,3.79-.87,5.67-1.31V7192h.35q-.81-3.18-1.72-6.29c-1.2-3.75-2.53-7.44-4.05-11,.19.11.38.25.57.36q-2.93-8.05-6.53-15.58a87.51,87.51,0,0,0-105,132.46q6.9,0,13.75-.21A77.23,77.23,0,0,1,6308.23,7280.47Zm69.16-117.36a76.34,76.34,0,0,1,24.15,5.24,121.46,121.46,0,0,1,9,20.3l.74,2.18-2.25-.43a190.22,190.22,0,0,0-30.36-3.2l-1.31,0Zm0,32.09,1.37,0a164.39,164.39,0,0,1,34.14,4l.81.19.19.81a164.15,164.15,0,0,1,4,34.13l0,1.37h-40.57Zm-8.05,89.18-1.37,0a164,164,0,0,1-34.12-4l-.81-.19-.19-.81a163.54,163.54,0,0,1-4-34.13l0-1.38h40.56Zm-33.16-95.73a122.1,122.1,0,0,1,9-20.32,76.54,76.54,0,0,1,24.13-5.22v24.05l-1.3,0a189.85,189.85,0,0,0-30.34,3.2l-2.26.43Zm-3.13,10.82.8-.19a164,164,0,0,1,34.12-4l1.37,0v40.57h-40.56l0-1.37a163.84,163.84,0,0,1,4-34.12Zm-.37-24.81a136.31,136.31,0,0,0-6,17.52l-.2.75-.74.2a135.45,135.45,0,0,0-17.53,6A77.15,77.15,0,0,1,6332.68,7174.66Zm-30.77,37a121.74,121.74,0,0,1,20.32-9l2.17-.74-.43,2.26a191.22,191.22,0,0,0-3.19,30.35l0,1.3h-24.05A76.33,76.33,0,0,1,6301.91,7211.63Zm0,56.35a76.12,76.12,0,0,1-5.23-24.17h24.05l0,1.3,3.2,30.36.43,2.26-2.18-.73A123.52,123.52,0,0,1,6301.92,7268Z" transform="translate(-6156.81 -7024.82)"/><path class="cls-12" d="M6419.47,7278.37l2.6-.6a196.5,196.5,0,0,0,3.67-38,193.62,193.62,0,0,0-5.92-47.84h-.35Z" transform="translate(-6156.81 -7024.82)"/><path class="cls-12" d="M6419.47,7278.37l2.6-.6a196.5,196.5,0,0,0,3.67-38,193.62,193.62,0,0,0-5.92-47.84h-.35Z" transform="translate(-6156.81 -7024.82)"/><path class="cls-13" d="M6436.56,7281.27a74.1,74.1,0,0,0,5.34-8.73c-2.89.83-5.79,1.62-8.69,2.39v7.63C6434.33,7282.14,6435.45,7281.72,6436.56,7281.27Z" transform="translate(-6156.81 -7024.82)"/><path class="cls-13" d="M6436.56,7281.27a74.1,74.1,0,0,0,5.34-8.73c-2.89.83-5.79,1.62-8.69,2.39v7.63C6434.33,7282.14,6435.45,7281.72,6436.56,7281.27Z" transform="translate(-6156.81 -7024.82)"/><path class="cls-14" d="M6420.23,7286.65l.75-.2c3.17-.85,6.31-1.83,9.4-2.9h-9.57c-.25,1.09-.5,2.16-.77,3.23l.16,0Z" transform="translate(-6156.81 -7024.82)"/><path class="cls-14" d="M6420.23,7286.65l.75-.2c3.17-.85,6.31-1.83,9.4-2.9h-9.57c-.25,1.09-.5,2.16-.77,3.23l.16,0Z" transform="translate(-6156.81 -7024.82)"/><path class="cls-15" d="M6422.33,7277.72v0l-.26.07c-.39,1.94-.82,3.87-1.26,5.78h9.57c.95-.32,1.89-.64,2.83-1v-7.63q-5.32,1.42-10.69,2.73Z" transform="translate(-6156.81 -7024.82)"/><path class="cls-15" d="M6422.33,7277.72v0l-.26.07c-.39,1.94-.82,3.87-1.26,5.78h9.57c.95-.32,1.89-.64,2.83-1v-7.63q-5.32,1.42-10.69,2.73Z" transform="translate(-6156.81 -7024.82)"/><path class="cls-15" d="M6422.33,7277.72v0l-.26.07c-.39,1.94-.82,3.87-1.26,5.78h9.57c.95-.32,1.89-.64,2.83-1v-7.63q-5.32,1.42-10.69,2.73Z" transform="translate(-6156.81 -7024.82)"/><path class="cls-16" d="M6419.47,7283.55v-5.18c-1.88.44-3.78.89-5.67,1.31l-.11.44-.8.19a144.67,144.67,0,0,1-15.15,2.69,511.41,511.41,0,0,1-53.83,7.24,194.34,194.34,0,0,0,24.13,2.14l1.3,0v3.08c2.69-.32,5.38-.66,8.05-1v-2.06l1.31,0a191.58,191.58,0,0,0,27.62-2.72c4.61-.89,9.18-1.86,13.72-2.88.27-1.07.52-2.14.77-3.23Z" transform="translate(-6156.81 -7024.82)"/><path class="cls-16" d="M6419.47,7283.55v-5.18c-1.88.44-3.78.89-5.67,1.31l-.11.44-.8.19a144.67,144.67,0,0,1-15.15,2.69,511.41,511.41,0,0,1-53.83,7.24,194.34,194.34,0,0,0,24.13,2.14l1.3,0v3.08c2.69-.32,5.38-.66,8.05-1v-2.06l1.31,0a191.58,191.58,0,0,0,27.62-2.72c4.61-.89,9.18-1.86,13.72-2.88.27-1.07.52-2.14.77-3.23Z" transform="translate(-6156.81 -7024.82)"/><path class="cls-16" d="M6419.47,7283.55v-5.18c-1.88.44-3.78.89-5.67,1.31l-.11.44-.8.19a144.67,144.67,0,0,1-15.15,2.69,511.41,511.41,0,0,1-53.83,7.24,194.34,194.34,0,0,0,24.13,2.14l1.3,0v3.08c2.69-.32,5.38-.66,8.05-1v-2.06l1.31,0a191.58,191.58,0,0,0,27.62-2.72c4.61-.89,9.18-1.86,13.72-2.88.27-1.07.52-2.14.77-3.23Z" transform="translate(-6156.81 -7024.82)"/><path class="cls-17" d="M6420.81,7283.55c.44-1.91.87-3.84,1.26-5.78l-2.6.6v5.18Z" transform="translate(-6156.81 -7024.82)"/><path class="cls-17" d="M6420.81,7283.55c.44-1.91.87-3.84,1.26-5.78l-2.6.6v5.18Z" transform="translate(-6156.81 -7024.82)"/><path class="cls-17" d="M6420.81,7283.55c.44-1.91.87-3.84,1.26-5.78l-2.6.6v5.18Z" transform="translate(-6156.81 -7024.82)"/><path class="cls-17" d="M6420.81,7283.55c.44-1.91.87-3.84,1.26-5.78l-2.6.6v5.18Z" transform="translate(-6156.81 -7024.82)"/><path class="cls-18" d="M6454.42,7268.8l-5.58,1.72c-2.51,3.35-5.6,7.3-9.06,11.4q4.79-1.28,9.52-2.65c.21-.45.43-.9.65-1.35C6451.11,7275.57,6452.72,7272,6454.42,7268.8Z" transform="translate(-6156.81 -7024.82)"/><path class="cls-18" d="M6454.42,7268.8l-5.58,1.72c-2.51,3.35-5.6,7.3-9.06,11.4q4.79-1.28,9.52-2.65c.21-.45.43-.9.65-1.35C6451.11,7275.57,6452.72,7272,6454.42,7268.8Z" transform="translate(-6156.81 -7024.82)"/><path class="cls-19" d="M6336.13,7290.81c-2.76.18-5.54.33-8.31.47q1.13,3.75,2.45,7.4,4.33-.18,8.64-.44c-1-2.42-1.91-4.86-2.74-7.31Z" transform="translate(-6156.81 -7024.82)"/><path class="cls-19" d="M6336.13,7290.81c-2.76.18-5.54.33-8.31.47q1.13,3.75,2.45,7.4,4.33-.18,8.64-.44c-1-2.42-1.91-4.86-2.74-7.31Z" transform="translate(-6156.81 -7024.82)"/><path class="cls-19" d="M6336.13,7290.81c-2.76.18-5.54.33-8.31.47q1.13,3.75,2.45,7.4,4.33-.18,8.64-.44c-1-2.42-1.91-4.86-2.74-7.31Z" transform="translate(-6156.81 -7024.82)"/><path class="cls-20" d="M6316.83,7291.71q-6.85.2-13.75.21a87.43,87.43,0,0,0,6,7.25q7.68,0,15.3-.26A78.18,78.18,0,0,1,6316.83,7291.71Z" transform="translate(-6156.81 -7024.82)"/><path class="cls-20" d="M6316.83,7291.71q-6.85.2-13.75.21a87.43,87.43,0,0,0,6,7.25q7.68,0,15.3-.26A78.18,78.18,0,0,1,6316.83,7291.71Z" transform="translate(-6156.81 -7024.82)"/><path class="cls-20" d="M6316.83,7291.71q-6.85.2-13.75.21a87.43,87.43,0,0,0,6,7.25q7.68,0,15.3-.26A78.18,78.18,0,0,1,6316.83,7291.71Z" transform="translate(-6156.81 -7024.82)"/><path class="cls-21" d="M6307.64,7086a188.31,188.31,0,0,0-61.87,202.87l3.21.33a188.24,188.24,0,0,1,63.53-197.14c80.08-64.29,196.61-52.42,262.21,26-.79-1-1.55-2.07-2.37-3.09C6507.25,7033.84,6388.73,7020.88,6307.64,7086Z" transform="translate(-6156.81 -7024.82)"/><path class="cls-22" d="M6278.7,7350.71c.82,1,1.68,2,2.51,3a188,188,0,0,1-30.2-57.59l-3-.36A187.79,187.79,0,0,0,6278.7,7350.71Z" transform="translate(-6156.81 -7024.82)"/><path class="cls-23" d="M6160.07,7323.1l4.22.51c-1-3.27-2-6.57-2.9-9.86-1.53-.15-3.05-.3-4.58-.47Q6158.34,7318.22,6160.07,7323.1Z" transform="translate(-6156.81 -7024.82)"/><path class="cls-24" d="M6160.07,7323.1l4.22.51c-1-3.27-2-6.57-2.9-9.86-1.53-.15-3.05-.3-4.58-.47Q6158.34,7318.22,6160.07,7323.1Z" transform="translate(-6156.81 -7024.82)"/><path class="cls-25" d="M6368.94,7033.13c-110.57,32.08-174.2,147.71-142.12,258.27.41,1.38.88,2.74,1.31,4.11-29.31-109.29,34-222.43,143.21-254.11s223.24,30,257,138c-.38-1.39-.69-2.78-1.1-4.17C6595.13,7064.68,6479.5,7001,6368.94,7033.13Z" transform="translate(-6156.81 -7024.82)"/><path class="cls-26" d="M6181.41,7352.05h11.33c.61,0,1.17,0,1.78.05,7.52.41,11.18,3.4,11.84,9a10.41,10.41,0,0,1-2.23,8.13,10.93,10.93,0,0,1-8.34,3.86h-9.25v15.55h-5.13Zm10.77,17.48c.41,0,.82-.05,1.17-.05,4.17-.15,6-1.27,7.32-4a6.76,6.76,0,0,0,.56-3.81c-.36-3.82-2.49-5.8-7.68-6.16h-7v14Z" transform="translate(-6156.81 -7024.82)"/><path class="cls-26" d="M6221,7362.67c6,1.07,10,6,10,13.16s-4,12.1-10,13.17c-8.79,1.57-15.4-4.07-15.4-13.17S6212.21,7361.1,6221,7362.67Zm-10.42,14.48c.66,6.92,4.52,10,9.76,8.75,3.2-.82,5.18-3.46,5.64-8.75a11.22,11.22,0,0,0,0-2.59c-.46-5.33-2.44-7.93-5.64-8.74-5.24-1.32-9.1,1.78-9.76,8.74a10.87,10.87,0,0,0-.05,1.27A11.56,11.56,0,0,0,6210.58,7377.15Z" transform="translate(-6156.81 -7024.82)"/><path class="cls-26" d="M6237.23,7363.13l6.4,20.38,6.3-20.38h5.85l6.35,20.38,6.51-20.38h4.21l-8.08,25.51h-5.33l-6.71-21.4-6.61,21.4h-5.54l-8.08-25.51Z" transform="translate(-6156.81 -7024.82)"/><path class="cls-26" d="M6278.87,7376.49a8.87,8.87,0,0,0,0,1.63c.41,5.64,3.1,8.24,7.06,8.28,3.2.1,5.29-1.47,6.2-4.88a1.61,1.61,0,0,0,.16-.71h4.32a5.8,5.8,0,0,1-.26,1.58c-1.07,4.17-4.63,6.81-10.42,6.91-7,.15-10.92-3.66-11.69-11.39-.86-9,3.2-14.33,9.46-15.19,8.43-1.17,13.11,2.9,13.51,12.2,0,.51,0,1-.05,1.57Zm13.62-2.59a4.41,4.41,0,0,0,.05-.81c-.15-5.24-2.8-7.78-6.86-7.62-3.46.1-6,2.33-6.66,7.11a5.62,5.62,0,0,0-.1,1.32Z" transform="translate(-6156.81 -7024.82)"/><path class="cls-26" d="M6302.1,7363.13h4.57v3.6a6.7,6.7,0,0,1,.46-.71,7.24,7.24,0,0,1,6.2-3.35,9.3,9.3,0,0,1,2.34.2v4l-.46-.05-.61-.05c-5.69-.31-7.93,1.93-7.93,7.21v14.64h-4.57Z" transform="translate(-6156.81 -7024.82)"/><path class="cls-26" d="M6339.66,7366.73l-.56-.71a16.18,16.18,0,0,1-2.49-4.36c-1.73-5.34,1.63-10.17,7.47-10.07a7.14,7.14,0,0,1,1.83.21c4.78,1.06,7.06,6.8,4.12,11.38a12.43,12.43,0,0,1-4.37,3.91c-.51.26-1.07.51-1.58.76l9.76,11.49a22.3,22.3,0,0,0,1.37-7.27h2.8a28.53,28.53,0,0,1-.66,4.47,26.43,26.43,0,0,1-1.83,4.83l6.3,7.27h-3.56l-4.17-5.13c-.3.4-.55.76-.86,1.11A13.06,13.06,0,0,1,6346,7389c-5.94,1.32-11.43-1.28-13.72-5.8a10.68,10.68,0,0,1-1.12-5c.11-4,2.34-7.57,7-10.22a17.66,17.66,0,0,1,1.83-.86Zm-1.63,4.42c-.56.51-1.11,1.08-1.62,1.63a8.24,8.24,0,0,0,3.71,13.42c4,1.32,8.18.16,11.33-3.25.35-.41.66-.82,1-1.22L6341.59,7369A14.23,14.23,0,0,0,6338,7371.15Zm6-5.89c2.9-1.68,4.07-3.3,4.37-5.43.46-3.46-2.13-5.95-5.34-5.39-3.81.61-5.28,4.27-2.69,8.59.31.4.56.81.86,1.22a13,13,0,0,0,1.38,1.72A7,7,0,0,0,6344,7365.26Z" transform="translate(-6156.81 -7024.82)"/><path class="cls-26" d="M6379.21,7352.05h22.56v3.66h-17.43v12.2h16.47v3.7h-16.47V7385h18v3.66h-23.12Z" transform="translate(-6156.81 -7024.82)"/><path class="cls-26" d="M6407.11,7363.13h4.57v4.67l.46-.91a8.19,8.19,0,0,1,6.86-4.47c6.05-.56,9.5,2.48,9.76,7.87l.05,1.12v17.23h-4.58v-16.21l0-1.12c-.15-2.13-.55-3.1-1.47-4.07a5.69,5.69,0,0,0-5.74-1.42c-3.36.81-5.29,3.66-5.29,9.76v13.06h-4.57Z" transform="translate(-6156.81 -7024.82)"/><path class="cls-26" d="M6438.47,7376.49a8.87,8.87,0,0,0,0,1.63c.41,5.64,3.1,8.24,7.06,8.28,3.2.1,5.29-1.47,6.2-4.88a1.61,1.61,0,0,0,.16-.71h4.32a5.8,5.8,0,0,1-.26,1.58c-1.07,4.17-4.63,6.81-10.42,6.91-7,.15-10.92-3.66-11.69-11.39-.86-9,3.2-14.33,9.46-15.19,8.43-1.17,13.11,2.9,13.51,12.2,0,.51,0,1-.05,1.57Zm13.62-2.59a4.41,4.41,0,0,0,.05-.81c-.15-5.24-2.8-7.78-6.86-7.62-3.46.1-5.95,2.33-6.66,7.11a5.62,5.62,0,0,0-.1,1.32Z" transform="translate(-6156.81 -7024.82)"/><path class="cls-26" d="M6461.7,7363.13h4.57v3.6a6.7,6.7,0,0,1,.46-.71,7.24,7.24,0,0,1,6.2-3.35,9.3,9.3,0,0,1,2.34.2v4l-.46-.05-.61-.05c-5.69-.31-7.93,1.93-7.93,7.21v14.64h-4.57Z" transform="translate(-6156.81 -7024.82)"/><path class="cls-26" d="M6494.28,7363.13h4.63v25.36c0,7.06-4.78,11.53-13.17,11.08-6-.36-9.19-3-9.6-7a6.94,6.94,0,0,1,0-1h4.63a1.8,1.8,0,0,0,0,.51c.25,2.38,1.93,4,5.43,4.21,4.83.36,7.68-2.18,8-6.76a6.48,6.48,0,0,0,0-.86v-5.59l-.25.46-.51.71c-2.59,4-7,5.44-11.79,3.5-3.66-1.52-5.89-4.67-6.6-9.91a17.44,17.44,0,0,1,.1-4.67c1-6,4.67-9.76,8.74-10.37,5.08-.81,8.69.92,10.31,4Zm-5.13,22c1.83-.56,3.35-2.13,4.52-5.08a13.87,13.87,0,0,0,.72-3.15c.81-8.28-3.41-12.09-8.59-10.93-2.95.71-5.19,3.41-5.69,8a11.37,11.37,0,0,0-.16,1.48C6479.75,7383.25,6484.22,7386.71,6489.15,7385.13Z" transform="translate(-6156.81 -7024.82)"/><path class="cls-26" d="M6506.23,7363.13l7.52,20.38,7.48-20.38h4.16l-13,35.37h-4.47l3.46-9.45-10-25.92Z" transform="translate(-6156.81 -7024.82)"/><path class="cls-26" d="M6544.82,7378.48c-.46,4.31,3.19,7.82,9.45,7.26a7.39,7.39,0,0,0,2.69-.66c2.95-1.27,4.17-3.25,4.12-5.85s-1.17-4.06-4.37-5.38l-2.65-.87-3.2-1.16c-.51-.16-1-.36-1.52-.56-7.83-3.05-10.17-6.66-8.29-12.86,1.22-4.12,5.34-7,12-7,8-.1,12.6,4.06,12.81,9.5h-5.19c-.05-3.25-2.79-5.79-7.67-5.79-4,0-6.15,1.47-7.12,4.32-1.17,3.66.61,6.35,6.86,8.49l3.51,1.16,1.78.62,1.37.5c5.69,2.09,7.88,6.1,6.56,11.49-1.12,4.47-4.68,7.11-11.28,7.52a26.3,26.3,0,0,1-4-.05c-6.81-.61-10.06-3.26-10.93-8.44a11.65,11.65,0,0,1-.1-2.28Z" transform="translate(-6156.81 -7024.82)"/><path class="cls-26" d="M6584.71,7362.67c6,1.07,10,6,10,13.16s-4,12.1-10,13.17c-8.79,1.57-15.4-4.07-15.4-13.17S6575.92,7361.1,6584.71,7362.67Zm-10.42,14.48c.66,6.92,4.53,10,9.76,8.75,3.2-.82,5.19-3.46,5.64-8.75a11.22,11.22,0,0,0,0-2.59c-.45-5.33-2.44-7.93-5.64-8.74-5.23-1.32-9.1,1.78-9.76,8.74a10.87,10.87,0,0,0-.05,1.27A11.56,11.56,0,0,0,6574.29,7377.15Z" transform="translate(-6156.81 -7024.82)"/><path class="cls-26" d="M6616.18,7371.41c-.05-.3-.1-.66-.15-1.07a12.73,12.73,0,0,0-.41-1.32c-1.48-3.45-6.35-4.62-9.91-1.62-1.63,1.37-2.69,3.55-2.95,7.16a15.57,15.57,0,0,0,.1,3.41c.66,5.28,2.8,7.57,6.66,7.82s6-1.52,6.61-5.08c.05-.25.05-.51.1-.71h4.32a5.83,5.83,0,0,1-.2,1.63c-1,4.93-4.88,7.92-11,7.67-7.17-.25-11.29-4.73-11.44-13.06-.1-8,3.91-13,9.81-13.72,7.32-1,11.74,2.13,12.75,7.62.06.41.11.87.16,1.27Z" transform="translate(-6156.81 -7024.82)"/><path class="cls-26" d="M6624.82,7352.05h4.57v5.44h-4.57Zm0,11.08h4.57v25.51h-4.57Z" transform="translate(-6156.81 -7024.82)"/><path class="cls-26" d="M6639.05,7376.49a8.87,8.87,0,0,0,0,1.63c.41,5.64,3.1,8.24,7.07,8.28,3.2.1,5.28-1.47,6.19-4.88a1.49,1.49,0,0,0,.16-.71h4.32a5.44,5.44,0,0,1-.26,1.58c-1.06,4.17-4.62,6.81-10.41,6.91-7,.15-10.93-3.66-11.69-11.39-.87-9,3.2-14.33,9.45-15.19,8.43-1.17,13.11,2.9,13.52,12.2,0,.51,0,1,0,1.57Zm13.62-2.59a4.41,4.41,0,0,0,.05-.81c-.15-5.24-2.79-7.78-6.86-7.62-3.46.1-5.95,2.33-6.66,7.11a5.62,5.62,0,0,0-.1,1.32Z" transform="translate(-6156.81 -7024.82)"/><path class="cls-26" d="M6658.06,7363.13h4.63v-5.19l4.57-1.83v7H6673v3.09h-5.74v15.66c.3,3.1,1,3.71,4.37,3.66a6.64,6.64,0,0,0,1.63-.2v3.4a16.06,16.06,0,0,1-2.95.41c-5.69.15-7.62-1.73-7.62-7.58v-15.35h-4.63Z" transform="translate(-6156.81 -7024.82)"/><path class="cls-26" d="M6676.25,7363.13l7.53,20.38,7.47-20.38h4.17l-13,35.37h-4.48l3.46-9.45-10-25.92Z" transform="translate(-6156.81 -7024.82)"/><path d="M6333.41,7347c.76.3,1.51.53,2.27.81a116.35,116.35,0,0,1,83.83-217c-.75-.3-1.47-.63-2.23-.92A116.38,116.38,0,0,0,6333.41,7347Z" transform="translate(-6156.81 -7024.82)"/><path class="cls-26" d="M6430.92,7199.42h41.61l4.86.25c19.65.76,28.59,8.68,30,25.66,1.66,18.64-9.82,31.92-28.72,32.8l-2.68.13h-16.71v33.07h-28.35Zm35.24,41.23h2.55l1.79-.13c4.46-.13,7.52-2.17,9.56-6.38a13.48,13.48,0,0,0,1.16-7.28c-.64-7.41-4.47-11-13-11.36h-9.32v25.15Z" transform="translate(-6156.81 -7024.82)"/><path class="cls-26" d="M6513.78,7199.42h66.13v18.25h-38.18v17.49h36.39v18.9h-36.39v19h39v18.26h-66.9Z" transform="translate(-6156.81 -7024.82)"/><path class="cls-26" d="M6612.73,7260.56a10.82,10.82,0,0,0-.13,3.45c.51,8.42,6.13,13.15,15.06,12.26a12.49,12.49,0,0,0,4-1c4.34-2.17,6.37-5.36,6.25-9.82-.25-4.86-2.94-8.31-8.42-10.09l-.91-.26-4.84-1.4-7.54-2a27.33,27.33,0,0,1-2.68-.91c-22.85-7.4-29.48-15.83-25.53-32.29,3.2-13.53,15.33-21.84,38.17-21.58,2.05,0,4.22.12,6.25.26,16.09,1.4,24.4,6.12,29.12,14.68a25.86,25.86,0,0,1,3.06,13.78h-26.68v-1.91a14.11,14.11,0,0,0-1.27-4.47c-2.44-4.46-6.64-6.51-13-5.87a12.48,12.48,0,0,0-3.83,1c-4.6,2.44-6.51,6.52-5.49,11.37,1,4.21,4,6.65,12.38,9.07l8.43,2.42,10.09,2.81c16.08,4.6,23.36,16,19.78,31.4-3.07,13.28-12.89,20.17-33.95,21.31a89.22,89.22,0,0,1-11.88-.24c-17.23-1.41-26.29-7.15-31-17.24a27.47,27.47,0,0,1-2.42-14.68Z" transform="translate(-6156.81 -7024.82)"/><path class="cls-26" d="M6431.29,7146.1h8.58v44.53h-8.58Z" transform="translate(-6156.81 -7024.82)"/><path class="cls-26" d="M6445.7,7146.1h30v6.74h-19.86v11.5h18.87v6.93h-18.87v12.62h20.35v6.74H6445.7Z" transform="translate(-6156.81 -7024.82)"/><path class="cls-26" d="M6481.13,7146.1h30v6.74h-19.85v11.5h18.86v6.93h-18.86v12.62h20.34v6.74h-30.49Z" transform="translate(-6156.81 -7024.82)"/><path class="cls-26" d="M6516.57,7146.1h30v6.74h-19.86v11.5h18.86v6.93h-18.86v12.62h20.35v6.74h-30.49Z" transform="translate(-6156.81 -7024.82)"/><path d="M6322.3,7325.27a97,97,0,0,1-33.36-131.58c-.35.56-.73,1.11-1.09,1.68a97,97,0,1,0,165.67,101c.35-.58.67-1.16,1-1.75A97,97,0,0,1,6322.3,7325.27Z" transform="translate(-6156.81 -7024.82)"/><path class="cls-26" d="M6719.82,7361.91a9.12,9.12,0,1,1-9-8.87A8.94,8.94,0,0,1,6719.82,7361.91Zm-15.95,0a6.9,6.9,0,0,0,6.92,7.09,6.8,6.8,0,0,0,6.76-7,6.85,6.85,0,1,0-13.68-.06Zm5.46,4.6h-2.06v-8.87a23.79,23.79,0,0,1,3.41-.27,4.73,4.73,0,0,1,3,.7,2.24,2.24,0,0,1,.92,1.9,2.28,2.28,0,0,1-1.84,2.1v.11c.86.28,1.3,1,1.57,2.17a8,8,0,0,0,.65,2.16h-2.17a7.07,7.07,0,0,1-.7-2.16c-.16-.92-.7-1.36-1.84-1.36h-1Zm.05-5h1c1.14,0,2.06-.37,2.06-1.29s-.6-1.36-1.89-1.36a5.22,5.22,0,0,0-1.14.11Z" transform="translate(-6156.81 -7024.82)"/><line class="cls-27" x1="617.87" y1="37.41" x2="620.38" y2="357.78"/><text class="cls-28" transform="translate(643.44 197.59)">Universidade <tspan class="cls-29" x="641.59" y="0">F</tspan><tspan x="691.69" y="0">ederal da Bahia</tspan><tspan class="cls-30"><tspan class="cls-31" x="71.7" y="120">I</tspan><tspan x="100.9" y="120">EEE Student Branch Chapter</tspan></tspan></text><text x="-6156.81" y="-7024.82"/></svg>