<svg id="Camada_1" data-name="Camada 1" xmlns="http://www.w3.org/2000/svg" xmlns:xlink="http://www.w3.org/1999/xlink" viewBox="0 0 2068.35 374.78"><defs><style>.cls-1{fill:url(#New_Gradient_Swatch_6);}.cls-2{fill:url(#New_Gradient_Swatch_4);}.cls-3{stroke:#000;stroke-miterlimit:10;stroke-width:5px;}.cls-4{font-size:100px;font-family:Formata-Medium, Formata;font-weight:500;}.cls-5{letter-spacing:-0.02em;}.cls-6{font-family:Formata-Regular, Formata;font-weight:400;}.cls-7{letter-spacing:0.02em;}</style><linearGradient id="New_Gradient_Swatch_6" x1="6546.62" y1="7315.16" x2="6170.6" y2="7315.16" gradientUnits="userSpaceOnUse"><stop offset="0" stop-color="#129fdb"/><stop offset="1" stop-color="#7f8083"/></linearGradient><linearGradient id="New_Gradient_Swatch_4" x1="6546.62" y1="7315.16" x2="6170.6" y2="7315.16" gradientUnits="userSpaceOnUse"><stop offset="0" stop-color="#c0d134"/><stop offset="0.16" stop-color="#96c23f"/><stop offset="1" stop-color="#23592c"/></linearGradient></defs><path class="cls-1" d="M6160.07,7319.82l4.22.51c-1-3.27-2-6.57-2.9-9.86-1.53-.15-3.05-.3-4.58-.47Q6158.34,7314.94,6160.07,7319.82Z" transform="translate(-6156.81 -7021.55)"/><path class="cls-2" d="M6160.07,7319.82l4.22.51c-1-3.27-2-6.57-2.9-9.86-1.53-.15-3.05-.3-4.58-.47Q6158.34,7314.94,6160.07,7319.82Z" transform="translate(-6156.81 -7021.55)"/><line class="cls-3" x1="614.61" y1="37.41" x2="617.12" y2="357.78"/><text class="cls-4" transform="translate(639.36 190.68)">Universidade <tspan class="cls-5" x="641.59" y="0">F</tspan><tspan x="691.69" y="0">ederal da Bahia</tspan><tspan class="cls-6"><tspan class="cls-7" x="71.7" y="120">I</tspan><tspan x="100.9" y="120">EEE Student Branch Chapter</tspan></tspan></text><text x="-6156.81" y="-7021.55"/><path d="M6414.84,7182.43q-1.59-5.43-3.48-10.65l-.57-.37C6412.3,7175,6413.64,7178.67,6414.84,7182.43Z" transform="translate(-6156.81 -7021.55)"/><path d="M6410.49,7302.33c.22-.12.43-.26.64-.39q2.18-5.89,3.94-12A127.21,127.21,0,0,1,6410.49,7302.33Z" transform="translate(-6156.81 -7021.55)"/><path d="M6410.43,7276.85l.11-.43c-5.32,1.19-10.67,2.28-16.06,3.31a144.67,144.67,0,0,0,15.15-2.69Z" transform="translate(-6156.81 -7021.55)"/><path d="M6410.43,7276.85l.11-.43c-5.32,1.19-10.67,2.28-16.06,3.31a144.67,144.67,0,0,0,15.15-2.69Z" transform="translate(-6156.81 -7021.55)"/><path d="M6419.26,7274.39l-.19,0v0Z" transform="translate(-6156.81 -7021.55)"/><path d="M6419.26,7274.39l-.19,0v0Z" transform="translate(-6156.81 -7021.55)"/><path d="M6429.94,7279.3v1h-2.82c-3.09,1.06-6.23,2-9.41,2.89l-.74.21,0,.09q9.87-2.23,19.58-4.82c3.46-4.11,6.55-8.06,9.06-11.41-2.31.69-4.62,1.36-6.94,2a74.1,74.1,0,0,1-5.34,8.73Q6431.63,7278.67,6429.94,7279.3Z" transform="translate(-6156.81 -7021.55)"/><path d="M6429.94,7279.3q-1.39.51-2.82,1h2.82Z" transform="translate(-6156.81 -7021.55)"/><path d="M6429.94,7279.3q-1.39.51-2.82,1h2.82Z" transform="translate(-6156.81 -7021.55)"/><path d="M6411.13,7301.94q-2.78,7.59-6.16,14.69A83.81,83.81,0,0,0,6446,7276q-4.74,1.36-9.52,2.65C6429.23,7287.25,6420.23,7296.45,6411.13,7301.94Z" transform="translate(-6156.81 -7021.55)"/><path d="M6416.94,7283.48l-.16,0c-.53,2.14-1.1,4.28-1.71,6.38.6-1.91,1.18-3.82,1.7-5.75Z" transform="translate(-6156.81 -7021.55)"/><path d="M6410.49,7302.33a127.21,127.21,0,0,0,4.58-12.44c.61-2.1,1.18-4.24,1.71-6.38q-6.82,1.55-13.72,2.89c.91-.16,1.82-.31,2.72-.48l2.25-.43-.73,2.17a125.15,125.15,0,0,1-9.1,20.53,80.11,80.11,0,0,1-24.07,5v-22c-2.67.36-5.36.69-8.05,1v21a76.87,76.87,0,0,1-24.19-5.25,124.28,124.28,0,0,1-6.24-13c-2.88.17-5.75.32-8.64.44.76,2.11,1.55,4.2,2.42,6.25a76.72,76.72,0,0,1-8.28-6c-5.08.17-10.18.25-15.3.27A87.26,87.26,0,0,0,6370.1,7324a84.23,84.23,0,0,0,34.87-7.41q3.38-7.1,6.16-14.69C6410.92,7302.07,6410.71,7302.21,6410.49,7302.33Z" transform="translate(-6156.81 -7021.55)"/><path d="M6410.49,7302.33a127.21,127.21,0,0,0,4.58-12.44c.61-2.1,1.18-4.24,1.71-6.38q-6.82,1.55-13.72,2.89c.91-.16,1.82-.31,2.72-.48l2.25-.43-.73,2.17a125.15,125.15,0,0,1-9.1,20.53,80.11,80.11,0,0,1-24.07,5v-22c-2.67.36-5.36.69-8.05,1v21a76.87,76.87,0,0,1-24.19-5.25,124.28,124.28,0,0,1-6.24-13c-2.88.17-5.75.32-8.64.44.76,2.11,1.55,4.2,2.42,6.25a76.72,76.72,0,0,1-8.28-6c-5.08.17-10.18.25-15.3.27A87.26,87.26,0,0,0,6370.1,7324a84.23,84.23,0,0,0,34.87-7.41q3.38-7.1,6.16-14.69C6410.92,7302.07,6410.71,7302.21,6410.49,7302.33Z" transform="translate(-6156.81 -7021.55)"/><path d="M6317.52,7241.85a189.86,189.86,0,0,0,3.2,30.36Z" transform="translate(-6156.81 -7021.55)"/><path d="M6317.52,7241.85a189.86,189.86,0,0,0,3.2,30.36Z" transform="translate(-6156.81 -7021.55)"/><path d="M6305,7277.2a135.49,135.49,0,0,0,17.53,6l.74.2.2.75c.36,1.3.73,2.59,1.12,3.88q4.15-.21,8.31-.48l-.7-2.05,2.26.43c2.06.39,4.14.73,6.22,1.05a508.79,508.79,0,0,0,53.83-7.24,185.64,185.64,0,0,1-19,1.35l-1.37,0v-40.58h40.56l0,1.38a163.37,163.37,0,0,1-4,34.13l-.08.37c1.89-.42,3.79-.87,5.67-1.32v-86.39h.35q-.81-3.18-1.72-6.28c-1.2-3.76-2.54-7.44-4.05-11l.57.37q-2.93-8.05-6.53-15.59a87.52,87.52,0,0,0-105,132.47q6.9,0,13.75-.22A76.53,76.53,0,0,1,6305,7277.2Zm69.16-117.35a76.06,76.06,0,0,1,24.15,5.23,121.19,121.19,0,0,1,9,20.31l.74,2.18-2.26-.43a190,190,0,0,0-30.36-3.2l-1.3,0Zm0,32.09,1.37,0a164.4,164.4,0,0,1,34.14,4l.81.2.18.8a163.64,163.64,0,0,1,4,34.14l0,1.36h-40.56Zm-8.05,89.18-1.37,0a164.56,164.56,0,0,1-34.12-4l-.81-.19-.19-.81a163.63,163.63,0,0,1-4-34.14l0-1.38h40.56Zm-33.16-95.74a120.83,120.83,0,0,1,9-20.31,76.26,76.26,0,0,1,24.13-5.22v24l-1.3,0a191,191,0,0,0-30.34,3.19l-2.26.43Zm-3.14,10.83.81-.19a164.67,164.67,0,0,1,34.12-4.05l1.37,0v40.56h-40.56l0-1.36a164,164,0,0,1,4-34.13Zm-.36-24.82a135.45,135.45,0,0,0-6,17.53l-.2.74-.74.2a135.49,135.49,0,0,0-17.53,6A77.28,77.28,0,0,1,6329.42,7171.39Zm-30.77,37a122.78,122.78,0,0,1,20.31-9l2.18-.74-.43,2.26a189.94,189.94,0,0,0-3.19,30.34l0,1.3h-24.06A76.61,76.61,0,0,1,6298.65,7208.36Zm0,56.35a76.41,76.41,0,0,1-5.24-24.17h24.06l0,1.31,3.2,30.36.43,2.25-2.18-.73A122.68,122.68,0,0,1,6298.66,7264.71Z" transform="translate(-6156.81 -7021.55)"/><path d="M6416.21,7275.1c.86-.2,1.73-.39,2.59-.6a196.81,196.81,0,0,0-2.24-85.79h-.35Z" transform="translate(-6156.81 -7021.55)"/><path d="M6416.21,7275.1c.86-.2,1.73-.39,2.59-.6a196.81,196.81,0,0,0-2.24-85.79h-.35Z" transform="translate(-6156.81 -7021.55)"/><path d="M6433.3,7278a74.1,74.1,0,0,0,5.34-8.73q-4.34,1.23-8.7,2.39v7.63Q6431.64,7278.67,6433.3,7278Z" transform="translate(-6156.81 -7021.55)"/><path d="M6433.3,7278a74.1,74.1,0,0,0,5.34-8.73q-4.34,1.23-8.7,2.39v7.63Q6431.64,7278.67,6433.3,7278Z" transform="translate(-6156.81 -7021.55)"/><path d="M6417,7283.39l.74-.21c3.18-.85,6.32-1.83,9.41-2.89h-9.57c-.25,1.08-.5,2.16-.77,3.22l.16,0Z" transform="translate(-6156.81 -7021.55)"/><path d="M6417,7283.39l.74-.21c3.18-.85,6.32-1.83,9.41-2.89h-9.57c-.25,1.08-.5,2.16-.77,3.22l.16,0Z" transform="translate(-6156.81 -7021.55)"/><path d="M6419.07,7274.46v0l-.27.06c-.38,1.95-.81,3.88-1.25,5.79h9.57q1.43-.48,2.82-1v-7.63c-3.54.94-7.1,1.86-10.68,2.72Z" transform="translate(-6156.81 -7021.55)"/><path d="M6419.07,7274.46v0l-.27.06c-.38,1.95-.81,3.88-1.25,5.79h9.57q1.43-.48,2.82-1v-7.63c-3.54.94-7.1,1.86-10.68,2.72Z" transform="translate(-6156.81 -7021.55)"/><path d="M6419.07,7274.46v0l-.27.06c-.38,1.95-.81,3.88-1.25,5.79h9.57q1.43-.48,2.82-1v-7.63c-3.54.94-7.1,1.86-10.68,2.72Z" transform="translate(-6156.81 -7021.55)"/><path d="M6416.21,7280.29v-5.19c-1.88.45-3.78.9-5.67,1.32l-.11.43-.8.19a144.67,144.67,0,0,1-15.15,2.69,508.79,508.79,0,0,1-53.83,7.24,194.17,194.17,0,0,0,24.13,2.14l1.3,0v3.07c2.69-.32,5.38-.65,8.05-1v-2.06l1.3,0a190.14,190.14,0,0,0,27.63-2.71q6.9-1.33,13.72-2.89c.27-1.06.52-2.14.77-3.22Z" transform="translate(-6156.81 -7021.55)"/><path d="M6416.21,7280.29v-5.19c-1.88.45-3.78.9-5.67,1.32l-.11.43-.8.19a144.67,144.67,0,0,1-15.15,2.69,508.79,508.79,0,0,1-53.83,7.24,194.17,194.17,0,0,0,24.13,2.14l1.3,0v3.07c2.69-.32,5.38-.65,8.05-1v-2.06l1.3,0a190.14,190.14,0,0,0,27.63-2.71q6.9-1.33,13.72-2.89c.27-1.06.52-2.14.77-3.22Z" transform="translate(-6156.81 -7021.55)"/><path d="M6416.21,7280.29v-5.19c-1.88.45-3.78.9-5.67,1.32l-.11.43-.8.19a144.67,144.67,0,0,1-15.15,2.69,508.79,508.79,0,0,1-53.83,7.24,194.17,194.17,0,0,0,24.13,2.14l1.3,0v3.07c2.69-.32,5.38-.65,8.05-1v-2.06l1.3,0a190.14,190.14,0,0,0,27.63-2.71q6.9-1.33,13.72-2.89c.27-1.06.52-2.14.77-3.22Z" transform="translate(-6156.81 -7021.55)"/><path d="M6417.55,7280.29c.44-1.91.87-3.84,1.25-5.79-.86.21-1.73.4-2.59.6v5.19Z" transform="translate(-6156.81 -7021.55)"/><path d="M6417.55,7280.29c.44-1.91.87-3.84,1.25-5.79-.86.21-1.73.4-2.59.6v5.19Z" transform="translate(-6156.81 -7021.55)"/><path d="M6417.55,7280.29c.44-1.91.87-3.84,1.25-5.79-.86.21-1.73.4-2.59.6v5.19Z" transform="translate(-6156.81 -7021.55)"/><path d="M6417.55,7280.29c.44-1.91.87-3.84,1.25-5.79-.86.21-1.73.4-2.59.6v5.19Z" transform="translate(-6156.81 -7021.55)"/><path d="M6451.16,7265.54l-5.58,1.71c-2.51,3.35-5.6,7.3-9.06,11.41q4.77-1.29,9.52-2.65c.21-.46.43-.91.64-1.36C6447.85,7272.31,6449.46,7268.71,6451.16,7265.54Z" transform="translate(-6156.81 -7021.55)"/><path d="M6451.16,7265.54l-5.58,1.71c-2.51,3.35-5.6,7.3-9.06,11.41q4.77-1.29,9.52-2.65c.21-.46.43-.91.64-1.36C6447.85,7272.31,6449.46,7268.71,6451.16,7265.54Z" transform="translate(-6156.81 -7021.55)"/><path d="M6332.87,7287.54q-4.15.27-8.31.48c.75,2.5,1.57,5,2.45,7.39,2.89-.12,5.76-.27,8.64-.44-1-2.42-1.91-4.85-2.74-7.31Z" transform="translate(-6156.81 -7021.55)"/><path d="M6332.87,7287.54q-4.15.27-8.31.48c.75,2.5,1.57,5,2.45,7.39,2.89-.12,5.76-.27,8.64-.44-1-2.42-1.91-4.85-2.74-7.31Z" transform="translate(-6156.81 -7021.55)"/><path d="M6332.87,7287.54q-4.15.27-8.31.48c.75,2.5,1.57,5,2.45,7.39,2.89-.12,5.76-.27,8.64-.44-1-2.42-1.91-4.85-2.74-7.31Z" transform="translate(-6156.81 -7021.55)"/><path d="M6313.57,7288.44q-6.85.2-13.75.22a88.76,88.76,0,0,0,6,7.25c5.12,0,10.22-.1,15.3-.27A77,77,0,0,1,6313.57,7288.44Z" transform="translate(-6156.81 -7021.55)"/><path d="M6313.57,7288.44q-6.85.2-13.75.22a88.76,88.76,0,0,0,6,7.25c5.12,0,10.22-.1,15.3-.27A77,77,0,0,1,6313.57,7288.44Z" transform="translate(-6156.81 -7021.55)"/><path d="M6313.57,7288.44q-6.85.2-13.75.22a88.76,88.76,0,0,0,6,7.25c5.12,0,10.22-.1,15.3-.27A77,77,0,0,1,6313.57,7288.44Z" transform="translate(-6156.81 -7021.55)"/><path d="M6304.38,7082.73a188.3,188.3,0,0,0-61.87,202.87q1.6.18,3.21.33a188.22,188.22,0,0,1,63.53-197.13c80.08-64.3,196.6-52.42,262.2,26-.78-1-1.54-2.08-2.36-3.1C6504,7030.58,6385.47,7017.62,6304.38,7082.73Z" transform="translate(-6156.81 -7021.55)"/><path d="M6275.44,7347.45c.81,1,1.68,2,2.51,3a187.85,187.85,0,0,1-30.2-57.59l-3-.35A187.92,187.92,0,0,0,6275.44,7347.45Z" transform="translate(-6156.81 -7021.55)"/><path d="M6244.79,7292.48l3,.35c-.73-2.29-1.39-4.59-2-6.9q-1.61-.15-3.21-.33Q6243.58,7289.07,6244.79,7292.48Z" transform="translate(-6156.81 -7021.55)"/><path d="M6365.68,7029.87c-110.57,32.07-174.2,147.71-142.12,258.27.4,1.38.88,2.73,1.31,4.11-29.32-109.3,34-222.44,143.21-254.12s223.24,30,257,138c-.37-1.39-.68-2.79-1.09-4.18C6591.87,7061.41,6476.24,6997.78,6365.68,7029.87Z" transform="translate(-6156.81 -7021.55)"/><path d="M6178.15,7348.78h11.33c.61,0,1.17,0,1.78.05,7.52.41,11.18,3.41,11.84,9a10.37,10.37,0,0,1-2.24,8.13,10.88,10.88,0,0,1-8.33,3.87h-9.25v15.54h-5.13Zm10.77,17.48c.41,0,.81,0,1.17,0,4.17-.16,6.05-1.28,7.32-4a6.83,6.83,0,0,0,.56-3.81c-.36-3.81-2.49-5.8-7.68-6.15h-7v14Z" transform="translate(-6156.81 -7021.55)"/><path d="M6217.74,7359.41c6,1.06,10,6,10,13.15s-4,12.1-10,13.17c-8.79,1.58-15.4-4.07-15.4-13.17S6209,7357.83,6217.74,7359.41Zm-10.42,14.48c.66,6.91,4.52,10,9.76,8.74,3.2-.81,5.18-3.45,5.64-8.74a11.22,11.22,0,0,0,0-2.59c-.46-5.34-2.44-7.93-5.64-8.74-5.24-1.32-9.1,1.78-9.76,8.74a10.62,10.62,0,0,0,0,1.26A11.83,11.83,0,0,0,6207.32,7373.89Z" transform="translate(-6156.81 -7021.55)"/><path d="M6234,7359.86l6.4,20.38,6.3-20.38h5.85l6.35,20.38,6.51-20.38h4.21l-8.08,25.51h-5.33l-6.71-21.39-6.61,21.39h-5.54l-8.08-25.51Z" transform="translate(-6156.81 -7021.55)"/><path d="M6275.6,7373.23a11,11,0,0,0,0,1.62c.42,5.65,3.11,8.24,7.07,8.29,3.2.1,5.28-1.48,6.2-4.88a1.64,1.64,0,0,0,.15-.71h4.32a5.71,5.71,0,0,1-.25,1.57c-1.07,4.17-4.63,6.82-10.42,6.91-7,.16-10.92-3.65-11.69-11.38-.86-9,3.2-14.33,9.46-15.19,8.43-1.17,13.11,2.89,13.51,12.19,0,.51,0,1-.05,1.58Zm13.63-2.59a4.46,4.46,0,0,0,.05-.81c-.16-5.24-2.8-7.78-6.86-7.63-3.46.1-5.95,2.34-6.66,7.12a5.62,5.62,0,0,0-.1,1.32Z" transform="translate(-6156.81 -7021.55)"/><path d="M6298.84,7359.86h4.57v3.61a8,8,0,0,1,6.66-4.06,8.75,8.75,0,0,1,2.33.2v4l-.45-.05-.61,0c-5.7-.31-7.93,1.93-7.93,7.22v14.63h-4.57Z" transform="translate(-6156.81 -7021.55)"/><path d="M6336.4,7363.47l-.56-.71a16.2,16.2,0,0,1-2.49-4.37c-1.73-5.34,1.63-10.16,7.47-10.07a7.14,7.14,0,0,1,1.83.21c4.78,1.07,7.06,6.81,4.12,11.39a12.38,12.38,0,0,1-4.38,3.91l-1.57.76,9.76,11.49a22.3,22.3,0,0,0,1.37-7.27h2.79a26.66,26.66,0,0,1-.66,4.47,26,26,0,0,1-1.83,4.83l6.3,7.26H6355l-4.17-5.13c-.3.4-.56.77-.86,1.12a13.08,13.08,0,0,1-7.22,4.37c-5.95,1.32-11.43-1.27-13.72-5.79a10.61,10.61,0,0,1-1.12-5c.1-4,2.34-7.58,7-10.22a15.07,15.07,0,0,1,1.83-.86Zm-1.63,4.42a22.64,22.64,0,0,0-1.62,1.63,8.23,8.23,0,0,0,3.71,13.41c4,1.32,8.18.16,11.33-3.25.35-.4.66-.81,1-1.22l-10.82-12.75A14.23,14.23,0,0,0,6334.77,7367.89Zm6-5.89c2.9-1.68,4.06-3.31,4.37-5.44.46-3.46-2.13-6-5.34-5.39-3.81.61-5.28,4.27-2.69,8.59.31.41.56.81.86,1.22a13.91,13.91,0,0,0,1.38,1.73A8.19,8.19,0,0,0,6340.77,7362Z" transform="translate(-6156.81 -7021.55)"/><path d="M6376,7348.78h22.56v3.66h-17.43v12.2h16.46v3.71h-16.46v13.37h18v3.65H6376Z" transform="translate(-6156.81 -7021.55)"/><path d="M6403.85,7359.86h4.57v4.68c.15-.31.3-.61.46-.92a8.22,8.22,0,0,1,6.86-4.47c6.05-.56,9.5,2.49,9.76,7.88l.05,1.11v17.23H6421v-16.21l-.05-1.12c-.15-2.13-.55-3.1-1.47-4.06a5.69,5.69,0,0,0-5.74-1.42c-3.36.81-5.29,3.66-5.29,9.75v13.06h-4.57Z" transform="translate(-6156.81 -7021.55)"/><path d="M6435.2,7373.23a11,11,0,0,0,0,1.62c.42,5.65,3.11,8.24,7.07,8.29,3.2.1,5.28-1.48,6.2-4.88a1.64,1.64,0,0,0,.15-.71h4.32a5.71,5.71,0,0,1-.25,1.57c-1.07,4.17-4.63,6.82-10.42,6.91-7,.16-10.92-3.65-11.69-11.38-.86-9,3.2-14.33,9.46-15.19,8.43-1.17,13.11,2.89,13.51,12.19,0,.51,0,1-.05,1.58Zm13.63-2.59a4.46,4.46,0,0,0,.05-.81c-.16-5.24-2.8-7.78-6.86-7.63-3.46.1-6,2.34-6.66,7.12a5.62,5.62,0,0,0-.1,1.32Z" transform="translate(-6156.81 -7021.55)"/><path d="M6458.44,7359.86H6463v3.61a8,8,0,0,1,6.66-4.06,8.75,8.75,0,0,1,2.33.2v4l-.45-.05-.61,0c-5.7-.31-7.93,1.93-7.93,7.22v14.63h-4.57Z" transform="translate(-6156.81 -7021.55)"/><path d="M6491,7359.86h4.63v25.36c0,7.07-4.78,11.54-13.17,11.08-6-.36-9.19-3-9.6-7a7,7,0,0,1,0-1h4.62a1.49,1.49,0,0,0,.06.51c.25,2.39,1.93,4,5.43,4.22,4.83.35,7.68-2.19,8-6.76a5.26,5.26,0,0,0,.05-.86v-5.6l-.25.46-.51.72c-2.59,4-7,5.43-11.79,3.5-3.66-1.53-5.9-4.68-6.61-9.91a18,18,0,0,1,.11-4.68c1-6,4.67-9.75,8.74-10.37,5.08-.81,8.69.92,10.31,4Zm-5.13,22c1.83-.56,3.35-2.14,4.52-5.08a14.69,14.69,0,0,0,.72-3.15c.81-8.29-3.41-12.1-8.59-10.93-2.95.71-5.19,3.4-5.7,8a13,13,0,0,0-.15,1.47C6476.49,7380,6481,7383.44,6485.89,7381.87Z" transform="translate(-6156.81 -7021.55)"/><path d="M6503,7359.86l7.52,20.38,7.48-20.38h4.16l-13,35.37h-4.47l3.46-9.45-10-25.92Z" transform="translate(-6156.81 -7021.55)"/><path d="M6541.55,7375.21c-.46,4.32,3.2,7.83,9.45,7.26a7.39,7.39,0,0,0,2.7-.65c2.95-1.27,4.17-3.26,4.12-5.85-.11-2.74-1.17-4.06-4.38-5.38l-2.64-.87-3.2-1.17c-.51-.15-1-.35-1.52-.55-7.83-3.06-10.17-6.66-8.29-12.87,1.22-4.11,5.34-7,12-7,8-.1,12.6,4.07,12.81,9.51h-5.19c-.05-3.26-2.8-5.79-7.67-5.79-4,0-6.16,1.47-7.12,4.31-1.17,3.66.61,6.36,6.86,8.49l3.51,1.17,1.78.61,1.37.51c5.69,2.08,7.87,6.09,6.55,11.48-1.11,4.47-4.67,7.12-11.28,7.53a29.08,29.08,0,0,1-4-.05c-6.81-.62-10.06-3.26-10.93-8.45a11.61,11.61,0,0,1-.1-2.28Z" transform="translate(-6156.81 -7021.55)"/><path d="M6581.45,7359.41c6,1.06,10,6,10,13.15s-4,12.1-10,13.17c-8.79,1.58-15.4-4.07-15.4-13.17S6572.66,7357.83,6581.45,7359.41ZM6571,7373.89c.66,6.91,4.53,10,9.76,8.74,3.2-.81,5.18-3.45,5.64-8.74a11.22,11.22,0,0,0,0-2.59c-.46-5.34-2.44-7.93-5.64-8.74-5.23-1.32-9.1,1.78-9.76,8.74a10.62,10.62,0,0,0-.05,1.26A11.83,11.83,0,0,0,6571,7373.89Z" transform="translate(-6156.81 -7021.55)"/><path d="M6612.92,7368.14c-.06-.3-.11-.65-.15-1.06a12,12,0,0,0-.41-1.32c-1.48-3.46-6.35-4.63-9.91-1.63-1.63,1.37-2.69,3.56-2.95,7.17a15.48,15.48,0,0,0,.1,3.4c.66,5.29,2.8,7.57,6.66,7.83s6.05-1.52,6.6-5.08c.06-.26.06-.51.11-.72h4.32a5.48,5.48,0,0,1-.21,1.63c-1,4.93-4.88,7.93-11,7.67-7.17-.25-11.29-4.72-11.44-13.05-.1-8,3.91-13,9.81-13.73,7.32-1,11.74,2.13,12.75,7.63.06.4.11.86.16,1.26Z" transform="translate(-6156.81 -7021.55)"/><path d="M6621.56,7348.78h4.57v5.44h-4.57Zm0,11.08h4.57v25.51h-4.57Z" transform="translate(-6156.81 -7021.55)"/><path d="M6635.79,7373.23a8.76,8.76,0,0,0,0,1.62c.41,5.65,3.1,8.24,7.06,8.29,3.2.1,5.29-1.48,6.2-4.88a1.65,1.65,0,0,0,.16-.71h4.32a5.73,5.73,0,0,1-.26,1.57c-1.06,4.17-4.62,6.82-10.42,6.91-7,.16-10.92-3.65-11.69-11.38-.86-9,3.2-14.33,9.46-15.19,8.43-1.17,13.11,2.89,13.51,12.19,0,.51,0,1-.05,1.58Zm13.62-2.59a4.46,4.46,0,0,0,.05-.81c-.15-5.24-2.79-7.78-6.86-7.63-3.46.1-6,2.34-6.66,7.12a5.62,5.62,0,0,0-.1,1.32Z" transform="translate(-6156.81 -7021.55)"/><path d="M6654.8,7359.86h4.63v-5.18l4.57-1.83v7h5.74v3.1H6664v15.65c.3,3.11,1,3.72,4.37,3.66a6.51,6.51,0,0,0,1.62-.2v3.41a15.91,15.91,0,0,1-2.94.4c-5.69.15-7.62-1.72-7.62-7.57V7363h-4.63Z" transform="translate(-6156.81 -7021.55)"/><path d="M6673,7359.86l7.52,20.38,7.48-20.38h4.17l-13,35.37h-4.48l3.46-9.45-10-25.92Z" transform="translate(-6156.81 -7021.55)"/><path d="M6330.15,7343.76c.76.29,1.51.53,2.27.81a116.35,116.35,0,0,1,83.83-217c-.75-.31-1.47-.63-2.23-.92a116.38,116.38,0,0,0-83.87,217.13Z" transform="translate(-6156.81 -7021.55)"/><path d="M6427.66,7196.15h41.61l4.85.25c19.66.77,28.6,8.68,30,25.66,1.66,18.64-9.82,31.92-28.72,32.81l-2.68.13H6456v33.06h-28.34Zm35.23,41.24h2.56l1.78-.14c4.47-.13,7.53-2.16,9.57-6.38a13.44,13.44,0,0,0,1.16-7.27c-.64-7.41-4.48-11-13-11.37h-9.32v25.16Z" transform="translate(-6156.81 -7021.55)"/><path d="M6510.52,7196.15h66.13v18.26h-38.18v17.48h36.39v18.9h-36.39v19h38.95v18.26h-66.9Z" transform="translate(-6156.81 -7021.55)"/><path d="M6609.47,7257.29a10.27,10.27,0,0,0-.13,3.45c.51,8.42,6.12,13.16,15.06,12.26a12.49,12.49,0,0,0,4-1c4.34-2.18,6.37-5.37,6.25-9.83-.26-4.86-2.94-8.31-8.43-10.09l-.9-.25-4.85-1.41-7.53-2a27.22,27.22,0,0,1-2.68-.9c-22.85-7.41-29.48-15.83-25.53-32.3,3.19-13.53,15.33-21.83,38.17-21.57,2,0,4.22.12,6.25.25,16.09,1.4,24.4,6.12,29.12,14.69a25.84,25.84,0,0,1,3.06,13.78h-26.68v-1.91a14.16,14.16,0,0,0-1.27-4.48c-2.44-4.46-6.64-6.51-13-5.87a12.48,12.48,0,0,0-3.83,1c-4.6,2.43-6.51,6.51-5.5,11.36,1,4.22,4,6.65,12.39,9.07l8.43,2.42,10.08,2.82c16.09,4.59,23.37,15.95,19.79,31.4-3.07,13.28-12.89,20.17-34,21.31a87.52,87.52,0,0,1-11.88-.25c-17.23-1.41-26.29-7.14-31-17.23a27.51,27.51,0,0,1-2.42-14.69Z" transform="translate(-6156.81 -7021.55)"/><path d="M6428,7142.83h8.58v44.53H6428Z" transform="translate(-6156.81 -7021.55)"/><path d="M6442.44,7142.83h30v6.75h-19.85v11.5h18.87V7168h-18.87v12.62h20.35v6.74h-30.49Z" transform="translate(-6156.81 -7021.55)"/><path d="M6477.87,7142.83h30v6.75H6488v11.5h18.86V7168H6488v12.62h20.34v6.74h-30.49Z" transform="translate(-6156.81 -7021.55)"/><path d="M6513.31,7142.83h30v6.75h-19.86v11.5h18.86V7168h-18.86v12.62h20.35v6.74h-30.49Z" transform="translate(-6156.81 -7021.55)"/><path d="M6319,7322a97,97,0,0,1-33.35-131.58c-.35.56-.73,1.11-1.09,1.69a97,97,0,0,0,165.67,101c.35-.59.67-1.17,1-1.75A97,97,0,0,1,6319,7322Z" transform="translate(-6156.81 -7021.55)"/><path d="M6716.56,7358.65a9.12,9.12,0,1,1-9-8.87A8.93,8.93,0,0,1,6716.56,7358.65Zm-16,0a6.91,6.91,0,0,0,6.93,7.08,6.8,6.8,0,0,0,6.76-7,6.85,6.85,0,1,0-13.69-.05Zm5.47,4.6H6704v-8.88a23.79,23.79,0,0,1,3.41-.27,4.69,4.69,0,0,1,3,.71,2.23,2.23,0,0,1,.92,1.89,2.29,2.29,0,0,1-1.84,2.11v.11c.86.27,1.3,1,1.57,2.16a8.32,8.32,0,0,0,.64,2.17h-2.16a7.16,7.16,0,0,1-.7-2.17c-.16-.92-.7-1.35-1.84-1.35h-1Zm.05-5h1c1.14,0,2.06-.38,2.06-1.3s-.6-1.35-1.89-1.35a4.59,4.59,0,0,0-1.14.11Z" transform="translate(-6156.81 -7021.55)"/></svg>